<svg width="518" height="273" viewBox="0 0 518 273" fill="none" xmlns="http://www.w3.org/2000/svg">
<path d="M233.382 126.93C232.659 119.79 231.724 112.693 230.641 105.618C229.557 98.5417 228.325 91.5084 226.88 84.4963C226.157 80.9902 222.97 67.0723 222.12 63.6088C220.441 56.6604 218.678 49.7546 216.914 42.8275C216.744 42.19 217.148 41.5313 217.785 41.3826C218.38 41.2338 218.996 41.5738 219.209 42.1475C221.567 48.9471 223.544 55.8742 225.243 62.865C226.093 66.3711 226.837 69.8771 227.538 73.4044C228.24 76.9317 228.835 80.4803 229.408 84.0288C230.556 91.1259 231.512 98.2654 232.234 105.405C232.957 112.545 233.424 119.727 233.722 126.888C233.722 126.973 233.658 127.058 233.573 127.058C233.467 127.058 233.382 126.994 233.382 126.93Z" fill="#60E5AE"/>
<path d="M254.781 111.908C255.036 107.212 255.44 102.537 256.056 97.8623C256.672 93.1876 257.48 88.5554 258.436 83.9232C259.392 79.3122 260.455 74.7012 261.921 70.1965C263.387 65.713 265.002 61.272 266.999 56.9797C267.276 56.3848 267.998 56.1298 268.593 56.406C269.145 56.661 269.4 57.2985 269.23 57.8509C267.828 62.2919 266.319 66.6904 264.959 71.1527C263.599 75.5937 262.155 80.0134 260.922 84.5181C259.69 89.0016 258.606 93.5489 257.629 98.1173C256.651 102.686 255.78 107.297 255.1 111.929C255.079 112.014 255.015 112.078 254.909 112.057C254.845 112.078 254.781 111.993 254.781 111.908Z" fill="#84CC16"/>
<path d="M206.168 112.758C203.193 105.299 199.815 98.0535 195.969 91.0839C194.035 87.5991 191.932 84.2205 189.913 80.7995C187.894 77.3784 185.769 74.0211 183.708 70.6001C183.368 70.0264 183.56 69.3039 184.112 68.9639C184.622 68.6452 185.281 68.7727 185.642 69.2189C188.234 72.3425 190.508 75.6998 192.633 79.1421C194.758 82.5844 196.543 86.2392 198.221 89.9152C201.621 97.2673 204.383 104.874 206.444 112.651C206.466 112.736 206.423 112.821 206.338 112.843C206.274 112.885 206.211 112.843 206.168 112.758Z" fill="#4D93FC"/>
<path d="M269.763 123.933C271.697 117.92 274.013 112.013 276.775 106.318C279.538 100.623 282.704 95.0986 286.231 89.8077C287.995 87.1728 289.822 84.5592 291.798 82.0519C293.753 79.5445 295.814 77.1009 297.981 74.7636C302.295 70.0889 307.012 65.7541 312.112 61.9506C312.643 61.5469 313.387 61.6531 313.791 62.1843C314.152 62.673 314.088 63.3743 313.642 63.778C309.031 68.0065 304.547 72.3412 300.34 76.9097C296.112 81.4782 292.074 86.2379 288.356 91.2526C284.616 96.2673 281.28 101.558 278.22 107.019C275.16 112.501 272.44 118.154 270.103 124.018C270.061 124.103 269.976 124.146 269.891 124.103C269.784 124.103 269.742 124.018 269.763 123.933Z" fill="#E343E6"/>
<path d="M201.572 139.509C198.151 134.494 194.369 129.735 190.331 125.23C186.294 120.725 181.981 116.497 177.412 112.587C172.822 108.677 167.957 105.15 163.006 101.75C158.055 98.3501 152.87 95.2903 147.6 92.3792C147.027 92.0605 146.814 91.338 147.133 90.7431C147.43 90.2119 148.089 89.9781 148.663 90.2331C154.315 92.6555 159.67 95.7153 164.79 99.1151C169.911 102.515 174.65 106.488 179.133 110.696C183.596 114.903 187.782 119.429 191.585 124.21C195.389 129.012 198.81 134.091 201.891 139.339C201.933 139.424 201.912 139.509 201.827 139.551C201.721 139.615 201.636 139.573 201.572 139.509Z" fill="#4D93FC"/>
<path d="M333.746 36.0274L331.281 45.8656L337.996 53.4514L327.881 54.1526L322.739 62.8646L318.957 53.4726L309.055 51.284L316.832 44.7819L315.854 34.6887L324.46 40.0647L333.746 36.0274Z" fill="#E343E6"/>
<path d="M228.073 35.178L214.899 31.1194L204.083 39.6827L203.849 25.8922L192.375 18.264L205.422 13.7805L209.14 0.5L217.406 11.5281L231.196 10.9544L223.271 22.2375L228.073 35.178Z" fill="#60E5AE"/>
<path d="M120.342 70.1532L130.541 72.9156L138.594 66.0735L139.126 76.6341L148.114 82.18L138.254 85.9411L135.747 96.2042L129.118 87.9809L118.578 88.7671L124.358 79.9277L120.342 70.1532Z" fill="#4D93FC"/>
<path d="M316.938 97.6062C316.938 93.9726 319.891 91.019 323.525 91.019C327.158 91.019 330.112 93.9726 330.112 97.6062C330.112 101.24 327.158 104.193 323.525 104.193C319.891 104.193 316.938 101.24 316.938 97.6062Z" fill="#60E5AE"/>
<path d="M151.898 123.976C151.898 121.448 153.96 119.386 156.488 119.386C159.017 119.386 161.078 121.448 161.078 123.976C161.078 126.505 159.017 128.566 156.488 128.566C153.96 128.566 151.898 126.526 151.898 123.976Z" fill="#DD9221"/>
<path d="M0.414062 201.406C0.414062 197.773 3.36764 194.819 7.00118 194.819C10.6347 194.819 13.5883 197.773 13.5883 201.406C13.5883 205.04 10.6347 207.994 7.00118 207.994C3.36764 207.994 0.414062 205.04 0.414062 201.406Z" fill="#DD9221"/>
<path d="M379.492 94.7809C379.492 92.2523 381.553 90.1912 384.082 90.1912C386.61 90.1912 388.672 92.2523 388.672 94.7809C388.672 97.3095 386.61 99.3706 384.082 99.3706C381.532 99.3494 379.492 97.3095 379.492 94.7809Z" fill="#E343E6"/>
<path d="M280.156 207.463C280.156 204.934 282.217 202.873 284.746 202.873C287.275 202.873 289.336 204.934 289.336 207.463C289.336 209.991 287.275 212.052 284.746 212.052C282.217 212.052 280.156 209.991 280.156 207.463Z" fill="#60E5AE"/>
<path d="M18.285 114.096C20.8199 114.096 22.8748 112.041 22.8748 109.506C22.8748 106.971 20.8199 104.916 18.285 104.916C15.7502 104.916 13.6953 106.971 13.6953 109.506C13.6953 112.041 15.7502 114.096 18.285 114.096Z" fill="#DD9221"/>
<path d="M508.406 212.413C508.406 209.885 510.467 207.823 512.996 207.823C515.525 207.823 517.586 209.885 517.586 212.413C517.586 214.942 515.525 217.003 512.996 217.003C510.467 217.003 508.406 214.942 508.406 212.413Z" fill="#DD9221"/>
<path d="M334.973 240.654C337.507 240.654 339.562 238.599 339.562 236.064C339.562 233.529 337.507 231.474 334.973 231.474C332.438 231.474 330.383 233.529 330.383 236.064C330.383 238.599 332.438 240.654 334.973 240.654Z" fill="#4D93FC"/>
<path d="M451.672 231.793C451.672 229.264 453.733 227.203 456.262 227.203C458.79 227.203 460.851 229.264 460.851 231.793C460.851 234.321 458.79 236.383 456.262 236.383C453.733 236.383 451.672 234.321 451.672 231.793Z" fill="#DD9221"/>
<path d="M49.9647 233.916C52.4996 233.916 54.5545 231.861 54.5545 229.326C54.5545 226.791 52.4996 224.736 49.9647 224.736C47.4299 224.736 45.375 226.791 45.375 229.326C45.375 231.861 47.4299 233.916 49.9647 233.916Z" fill="#DD9221"/>
<path d="M492.597 114.862C495.132 114.862 497.187 112.807 497.187 110.272C497.187 107.737 495.132 105.682 492.597 105.682C490.063 105.682 488.008 107.737 488.008 110.272C488.008 112.807 490.063 114.862 492.597 114.862Z" fill="#DD9221"/>
<path d="M99.0703 118.558C99.0703 114.924 102.024 111.971 105.657 111.971C109.291 111.971 112.245 114.924 112.245 118.558C112.245 122.191 109.291 125.145 105.657 125.145C102.024 125.145 99.0703 122.213 99.0703 118.558Z" fill="#E343E6"/>
<path d="M208.734 223.57C208.734 219.936 211.688 216.982 215.321 216.982C218.955 216.982 221.909 219.936 221.909 223.57C221.909 227.203 218.955 230.157 215.321 230.157C211.688 230.157 208.734 227.203 208.734 223.57Z" fill="#60E5AE"/>
<path d="M442.518 107.594L442.986 115.605L449.849 119.769L442.37 122.68L440.521 130.479L435.443 124.274L427.453 124.933L431.788 118.197L428.686 110.802L436.441 112.842L442.518 107.594Z" fill="#4D93FC"/>
<path d="M107.915 209.652L108.361 217.663L115.224 221.828L107.745 224.739L105.896 232.537L100.818 226.332L92.8281 226.991L97.1629 220.234L94.0606 212.839L101.838 214.879L107.915 209.652Z" fill="#60E5AE"/>
<path d="M391.224 205.039L396.579 210.989L404.547 209.969L400.51 216.917L403.952 224.163L396.112 222.485L390.29 227.988L389.461 219.998L382.406 216.152L389.758 212.901L391.224 205.039Z" fill="#E343E6"/>
<path d="M160.797 259.182C160.797 256.654 162.858 254.593 165.387 254.593C167.915 254.593 169.976 256.654 169.976 259.182C169.976 261.711 167.915 263.772 165.387 263.772C162.858 263.772 160.797 261.711 160.797 259.182Z" fill="#84CC16"/>
<path d="M249.451 249.301L254.806 255.272L262.753 254.231L258.737 261.179L262.158 268.425L254.317 266.747L248.495 272.25L247.666 264.261L240.633 260.436L247.964 257.185L249.451 249.301Z" fill="#E343E6"/>
<path d="M382.523 170.686C382.07 170.896 381.031 171.371 380.909 172.422C380.821 173.218 381.285 173.991 381.937 174.345C382.545 174.677 383.153 174.544 383.64 174.445C384.093 174.345 384.79 174.224 385.21 173.649C385.796 172.864 385.818 171.393 384.967 170.664C384.126 169.956 382.966 170.487 382.523 170.686Z" fill="white"/>
<path d="M385.54 142.042C384.866 141.544 383.793 141.379 382.776 141.622C382.058 141.788 381.527 142.141 381.306 142.573C381.184 142.816 381.173 143.214 381.173 144.187C381.173 144.795 381.162 145.104 381.206 145.668C381.284 146.862 381.991 162.096 382.046 166.32C382.046 166.729 382.069 167.823 382.787 168.287C383.03 168.442 383.329 168.52 383.638 168.52C384.07 168.52 384.523 168.365 384.821 168.077C385.308 167.624 385.308 166.928 385.308 166.684C385.297 162.528 385.64 158.315 385.971 154.236C386.181 151.638 386.402 148.941 386.524 146.287L386.535 146.155C386.601 144.629 386.679 142.893 385.54 142.042Z" fill="white"/>
<path d="M323.341 152.688C323.518 152.754 323.706 152.787 323.894 152.787C324.425 152.787 324.944 152.544 325.265 152.256C325.884 151.704 325.928 150.93 325.984 150.023C326.061 148.608 326.138 147.259 325.221 146.718C324.436 146.253 323.131 146.563 322.435 147.381C321.783 148.144 321.893 149.095 321.982 149.935C322.07 150.753 322.236 152.29 323.341 152.688Z" fill="white"/>
<path d="M417.01 170.391C414.438 168.131 411.777 165.812 410.82 161.786C410.387 159.96 410.462 158.524 411.045 157.222C412.181 154.693 415.32 152.733 417.04 153.496C418.37 154.079 419.193 154.828 419.805 155.995C420.045 156.444 420.493 156.519 420.852 156.384C421.241 156.234 421.57 155.83 421.45 155.307C421.196 154.244 420.374 151.64 418.221 150.458C415.216 148.812 410.626 149.815 407.741 152.763C404.84 155.726 404.96 160.11 404.975 160.903C404.975 161.128 404.99 161.472 405.035 161.936C405.393 164.929 407.143 167.024 407.86 167.862C408.04 168.071 408.234 168.281 408.428 168.49C406.933 170.525 404.855 172.695 402.209 173.892C401.491 174.207 401.133 174.281 400.804 174.132C399.667 173.638 399.877 170.645 400.25 165.692C400.31 164.899 400.37 164.061 400.43 163.163C401.073 153.87 400.819 151.221 399.234 150.264C398.128 149.605 396.782 149.994 395.9 150.249C393.702 150.892 391.669 152.822 387.363 161.023C387.378 160.783 387.378 160.574 387.378 160.32C387.393 160.005 387.408 159.676 387.423 159.302C387.662 154.678 387.752 150.503 386.392 150.189C386.137 150.129 385.644 150.174 385.001 150.234C383.985 150.323 383.431 150.383 383.013 150.653C382.056 151.266 382.131 152.778 382.161 153.286C382.28 155.366 382.206 157.476 382.131 159.526C382.116 159.781 382.116 160.05 382.116 160.32C381.727 160.544 381.264 160.769 380.74 160.963C379.933 161.262 379.186 161.427 378.588 161.502C377.706 155.292 374.491 150.578 370.724 149.994C367.151 149.441 364.968 151.266 364.938 151.281L363.712 152.793C360.378 153.78 357.807 156.638 356.656 160.649C355.833 163.477 355.833 166.5 356.506 169.208C355.609 170.316 354.667 171.378 353.621 172.321C351.423 174.311 350.735 174.281 350.586 174.221C350.122 174.042 349.674 173.234 349.763 168.58C349.808 165.901 350.003 164.031 350.227 161.846C350.302 161.128 350.376 160.364 350.451 159.541C351.184 151.7 350.616 150.698 349.868 150.264C348.762 149.62 346.983 150.264 346.071 151.236C345.234 152.134 345.144 153.301 345.114 153.735C344.755 158.314 344.651 162.325 344.636 164.959C343.44 166.724 342.079 168.311 340.539 169.672C339.074 170.959 336.353 173.383 334.843 172.605C333.677 172.022 333.677 169.642 333.692 168.64C333.707 161.651 333.782 156.204 333.871 151.999C334.544 151.97 335.187 151.925 335.77 151.91C340.719 151.67 342.214 151.595 342.901 150.308C343.454 149.276 343.245 147.779 342.468 147.181C341.735 146.612 340.674 146.971 339.552 147.346C339.403 147.39 339.239 147.45 339.089 147.495C337.579 147.989 335.77 148.408 333.961 148.737C334.14 141.839 334.365 139.429 334.365 139.384C334.469 138.337 334.574 135.868 333.483 135.419C333.109 135.269 332.541 135.419 331.27 135.778C330.523 135.988 330.134 136.092 329.88 136.272C328.818 137.02 328.848 138.666 328.848 139.235C328.863 141.046 328.773 145.295 328.669 149.485C327.503 149.605 326.561 149.665 325.993 149.68C325.589 149.68 324.498 149.695 324.169 150.353C323.989 150.698 324.094 151.087 324.184 151.281C324.483 152.044 325.843 152.269 327.891 152.269C328.116 152.269 328.355 152.269 328.594 152.254C328.579 153.212 328.22 161.352 328.19 163.776C328.175 164.884 328.175 166.53 328.235 168.55C327.607 169.059 326.964 169.568 326.321 170.046C322.793 172.68 321.926 172.8 321.567 172.62C320.64 172.171 320.79 169.972 320.924 167.996C321.672 157.162 322.001 150.997 320.222 150.353C319.699 150.159 318.697 150.353 318.129 150.473C317.546 150.608 316.933 150.742 316.499 151.161C316.155 151.476 315.991 151.895 315.916 152.299C314.675 151.296 313.016 150.383 310.923 150.249C310.728 150.234 310.549 150.234 310.37 150.234C306.243 150.234 303.477 153.376 302.536 154.439C299.336 158.06 297.901 163.881 298.858 169.268C298.888 169.448 298.933 169.627 298.977 169.807C294.896 174.236 293.266 174.82 292.624 174.461C292.489 174.386 292.175 174.206 291.921 171.707C291.712 169.538 291.697 167.353 291.921 165.213C295.703 160.05 298.379 154.469 299.86 148.632C301.968 140.372 300.428 136.661 299.321 135.194C298.992 134.761 298.14 133.608 296.645 133.189C294.208 132.486 291.801 134.252 291.009 134.82C288.737 136.481 286.524 140.208 286.524 165.452C286.524 166.44 286.524 167.607 286.584 168.804C285.522 170.136 284.446 171.348 283.369 172.351C282.966 172.725 282.129 173.518 281.575 173.309C280.888 173.039 280.873 171.229 280.873 170.63C280.873 168.939 280.992 166.335 281.112 163.582C281.321 158.943 281.575 153.69 281.291 151.371C281.261 151.132 281.172 150.413 280.619 149.979C280.185 149.635 279.482 149.53 278.72 149.665C277.673 149.874 276.731 150.488 276.268 151.281C275.805 152.089 275.909 152.942 275.939 153.301C276.014 154.124 275.984 157.94 275.924 165.557C275.924 166.41 275.894 167.098 275.879 167.502C274.818 168.969 273.622 170.271 272.246 171.348C271.305 172.082 268.419 174.311 267.238 173.533C266.595 173.114 266.64 171.408 266.79 167.981C267.014 162.729 267.163 156.998 267.388 153.376C267.447 152.299 267.552 150.518 266.565 149.964C265.728 149.5 264.472 150.129 263.829 150.668C262.768 151.565 262.514 152.852 262.439 153.271C261.781 156.743 261.677 161.651 261.632 163.507C261.617 164.15 261.587 164.779 261.572 165.422C260.451 167.009 259.195 168.445 257.79 169.702C256.324 170.989 253.588 173.398 252.093 172.635C250.927 172.052 250.927 169.672 250.942 168.67C250.957 161.681 251.032 156.234 251.122 152.029C251.794 151.999 252.437 151.955 253.02 151.94C257.969 151.7 259.464 151.625 260.152 150.338C260.705 149.306 260.495 147.809 259.718 147.211C258.986 146.642 257.924 147.001 256.803 147.375C256.653 147.42 256.489 147.48 256.339 147.525C254.829 148.019 253.02 148.438 251.211 148.767C251.391 141.869 251.615 139.459 251.615 139.414C251.705 138.367 251.824 135.898 250.733 135.449C250.359 135.299 249.791 135.449 248.535 135.793C247.788 136.003 247.399 136.107 247.13 136.287C246.068 137.035 246.098 138.696 246.098 139.25C246.113 141.061 246.024 145.325 245.919 149.5C244.753 149.62 243.811 149.68 243.243 149.695C242.839 149.695 241.748 149.71 241.419 150.368C241.24 150.713 241.344 151.102 241.434 151.296C241.733 152.059 243.093 152.284 245.142 152.284C245.366 152.284 245.605 152.284 245.844 152.269C245.814 153.69 245.635 158.883 245.575 160.035C245.485 161.921 245.321 165.303 245.485 168.565C244.858 169.074 244.215 169.583 243.572 170.061C240.044 172.695 239.176 172.815 238.818 172.635C237.891 172.186 238.04 169.987 238.175 168.011C238.922 157.177 239.251 151.012 237.472 150.368C236.949 150.174 235.947 150.368 235.379 150.488C234.766 150.623 234.183 150.757 233.749 151.176C233.406 151.491 233.241 151.91 233.166 152.314C231.926 151.311 230.266 150.398 228.173 150.264C223.748 149.964 220.758 153.331 219.771 154.439C216.572 158.06 215.136 163.881 216.093 169.268C216.153 169.583 216.213 169.867 216.288 170.166C213.118 173.922 211.982 174.281 211.593 174.072C211.204 173.862 211.294 172.635 211.608 168.535L211.653 167.966C212.176 161.083 212.266 159.257 211.13 158.629C210.681 158.374 210.278 158.479 209.665 158.644C209.171 158.778 208.484 158.943 207.437 159.018C206.286 159.093 205.135 159.033 203.998 158.808C205.15 157.237 207.302 153.885 206.54 151.625C206.45 151.371 206.331 151.146 206.166 150.952C204.985 149.47 201.861 149.515 199.977 151.027C199.02 151.79 198.616 152.778 198.452 153.197C197.615 155.277 197.914 157.865 199.199 159.766C199.483 160.185 199.827 160.544 200.186 160.888C198.258 163.372 196.374 165.826 194.58 168.191C194.804 163.986 195.073 158.988 195.387 153.167C195.417 152.568 195.522 150.772 194.595 150.308C194.341 150.174 194.071 150.204 193.593 150.249C192.95 150.323 191.754 150.443 191.081 151.251C190.693 151.715 190.588 152.284 190.573 152.703C189.302 151.551 187.493 150.428 185.161 150.264C180.706 149.949 177.746 153.391 176.759 154.513C173.545 158.225 172.11 164.18 173.096 169.687C173.126 169.822 173.156 169.957 173.186 170.091C171.855 171.588 170.211 173.009 168.252 173.892C167.535 174.207 167.176 174.281 166.847 174.132C165.711 173.638 165.92 170.645 166.294 165.707C166.354 164.914 166.414 164.076 166.473 163.178C167.116 153.885 166.862 151.236 165.277 150.279C164.171 149.62 162.825 150.009 161.943 150.264C159.746 150.907 157.712 152.837 153.407 161.038C153.422 160.649 153.452 160.065 153.482 159.332C153.766 151.042 152.854 150.308 152.45 150.219C152.196 150.159 151.702 150.204 151.06 150.264C150.043 150.353 149.49 150.413 149.056 150.683C148.099 151.296 148.189 152.808 148.204 153.316C148.324 155.381 148.249 157.506 148.174 159.541C148.159 159.781 148.159 160.035 148.159 160.275C147.98 160.364 147.83 160.484 147.651 160.574C146.709 161.008 145.692 161.307 144.661 161.472C144.212 158.374 143.181 155.636 141.79 153.616C140.878 152.284 139.339 150.503 136.767 149.964C136.378 149.889 133.209 149.276 130.922 151.296C130.324 151.82 129.95 152.374 129.726 152.778C126.392 153.78 123.805 156.653 122.654 160.649C122.236 162.115 122.041 163.627 122.026 165.138C119.933 167.907 116.27 171.423 110.664 172.501C104.863 173.608 101.111 172.097 98.9878 170.645C91.0194 165.153 92.0958 151.491 95.938 143.739C96.4762 142.662 99.4812 137.095 105.715 134.027C107.21 133.294 110.978 131.753 113.519 133.384C115.822 134.865 117.481 138.891 116.046 141.315C115.254 142.647 115.882 143.979 116.898 144.607C117.855 145.191 119.275 145.221 120.128 143.874C122.086 140.761 122.594 137.918 121.637 135.449C121.01 133.848 120.023 132.86 119.604 132.441C116.719 129.568 112.877 129.299 111.426 129.209C106.583 128.88 102.95 130.885 101.395 131.738C94.1589 135.718 86.5492 145.43 86.9529 157.342C87.2519 166.096 90.3765 172.665 95.7586 175.853C98.1955 177.304 101.006 178.022 104.116 178.022C105.028 178.022 105.97 177.963 106.941 177.828C114.252 176.87 119.29 171.992 122.25 168.041C122.684 170.6 123.701 172.964 125.255 174.73C127.154 176.87 129.681 177.768 132.207 177.768C134.48 177.768 136.737 177.035 138.516 175.853C142.015 173.503 144.317 169.223 144.721 164.375C145.902 164.136 147.023 163.731 148.099 163.178C148.099 163.298 148.084 163.417 148.084 163.552C148.084 165.737 148.159 167.951 148.219 170.091C148.279 171.962 148.339 173.892 148.354 175.793C148.354 176.137 148.369 177.035 149.011 177.484C149.266 177.663 149.594 177.723 149.908 177.723C150.85 177.723 151.867 177.169 151.927 177.14C153.766 176.137 153.661 173.713 153.482 169.328C153.437 168.34 153.407 167.233 153.377 166.036C154.932 163.657 156.531 161.307 158.221 159.033C159.432 157.402 160.553 155.935 161.016 155.935C161.495 156.1 161.345 157.776 161.121 160.095C160.927 162.28 160.643 165.258 160.598 169.014C160.553 173.324 160.867 175.883 162.691 177.125C163.633 177.768 164.664 177.828 165.262 177.828C165.337 177.828 165.397 177.828 165.442 177.828C168.746 177.783 171.796 175.314 174.023 172.875C174.845 174.85 176.041 176.346 177.492 177.14C178.523 177.708 179.794 177.992 181.125 177.992C182.201 177.992 183.307 177.798 184.354 177.424C186.791 176.526 188.076 174.745 189.571 172.68C189.721 172.486 189.841 172.261 189.975 172.067C189.945 172.875 189.915 173.683 189.885 174.491C185.415 180.581 181.738 185.879 179.331 189.725C178.105 191.67 175.563 195.74 176.864 199.736C177.492 201.651 178.733 202.833 179.375 203.432C180.676 204.659 182.395 205.183 184.13 205.183C185.939 205.183 187.748 204.614 189.078 203.671C190.095 202.953 190.648 202.145 191.141 201.427C192.711 199.107 193.025 196.803 193.294 193.795C193.653 189.769 193.832 187.734 193.787 185.624C193.758 184.397 193.952 180.162 194.356 172.456C196.748 168.939 199.214 165.452 201.696 161.996C203.371 162.864 205.419 163.133 207.467 162.669C207.198 165.497 206.944 168.445 206.719 171.468C206.57 173.324 206.391 175.613 207.721 176.571C208.424 177.08 209.605 177.199 209.859 177.229C209.859 177.229 211.518 177.125 211.847 177.065C213.701 176.75 216.706 173.234 216.826 173.084C216.915 172.964 217.005 172.845 217.11 172.74C217.932 174.566 219.083 175.942 220.474 176.691C221.505 177.244 222.776 177.529 224.107 177.529C225.183 177.529 226.289 177.349 227.321 176.975C229.758 176.092 231.058 174.341 232.553 172.321C232.658 172.186 232.748 172.037 232.838 171.902C232.912 174.805 233.017 176.586 234.333 177.379C234.781 177.648 235.259 177.738 235.753 177.738C236.56 177.738 237.367 177.484 237.98 177.289C240.238 176.571 241.509 175.224 244.05 172.56C244.573 172.007 245.097 171.453 245.635 170.899C245.784 172.216 246.009 173.443 246.338 174.431C246.472 174.835 246.876 176.032 247.997 176.75C248.64 177.154 249.372 177.304 250.06 177.304C251.152 177.304 252.168 176.96 252.721 176.78C255.427 175.868 257.191 174.087 258.761 172.336C259.688 171.303 260.585 170.211 261.452 169.089C261.422 171.962 261.587 174.76 262.544 176.017C262.783 176.331 263.067 176.571 263.216 176.691C263.216 176.735 263.336 176.78 263.336 176.78C264.293 177.125 265.265 177.289 266.206 177.289C266.476 177.289 266.73 177.274 266.999 177.244C270.258 176.915 272.366 174.596 274.609 172.141C275.027 171.678 275.446 171.199 275.834 170.705C275.834 174.97 276.148 176.242 277.195 176.885C277.748 177.229 278.361 177.319 278.914 177.319C279.303 177.319 279.647 177.274 279.931 177.244C281.785 177.005 283.04 175.897 284.162 174.775C285.074 173.862 285.971 172.86 286.838 171.812C287.227 174.266 288.034 176.451 289.798 177.229C290.426 177.514 290.979 177.514 291.353 177.529C291.398 177.529 291.443 177.529 291.487 177.529C294.881 177.529 297.811 174.461 299.59 172.067C300.413 174.236 301.683 175.897 303.253 176.735C304.285 177.289 305.556 177.573 306.886 177.573C307.963 177.573 309.069 177.394 310.1 177.02C312.537 176.137 313.823 174.386 315.333 172.366C315.438 172.231 315.527 172.082 315.617 171.947C315.692 174.85 315.796 176.631 317.112 177.424C317.546 177.693 318.039 177.783 318.532 177.783C319.34 177.783 320.147 177.529 320.76 177.334C323.017 176.616 324.288 175.269 326.83 172.605C327.353 172.052 327.891 171.498 328.415 170.944C328.564 172.261 328.788 173.488 329.117 174.476C329.252 174.88 329.655 176.077 330.777 176.795C331.42 177.199 332.152 177.349 332.84 177.349C333.931 177.349 334.948 177.005 335.501 176.825C338.207 175.912 339.971 174.132 341.541 172.381C342.632 171.169 343.664 169.897 344.665 168.58C344.68 169.313 344.695 169.987 344.71 170.6C344.77 174.416 344.8 176.167 346.175 176.975C346.684 177.274 347.357 177.424 348.164 177.424C348.657 177.424 349.21 177.364 349.793 177.244C351.199 176.96 352.23 176.257 353.053 175.613C354.697 174.341 356.058 172.785 357.164 171.288C357.687 172.605 358.39 173.802 359.272 174.805C361.156 176.945 363.682 177.828 366.179 177.828C368.436 177.828 370.694 177.11 372.458 175.912C375.956 173.563 378.259 169.283 378.647 164.435C379.843 164.195 380.98 163.791 382.056 163.223C382.056 163.357 382.041 163.507 382.041 163.642C382.041 165.826 382.116 168.041 382.176 170.181C382.235 172.052 382.295 173.982 382.31 175.882C382.31 176.227 382.325 177.14 382.968 177.588C383.222 177.768 383.551 177.828 383.865 177.828C384.807 177.828 385.824 177.274 385.883 177.244C387.707 176.227 387.618 173.817 387.438 169.433C387.393 168.445 387.363 167.338 387.333 166.141C388.888 163.761 390.503 161.412 392.177 159.137C393.388 157.506 394.495 156.04 394.973 156.04C395.451 156.204 395.302 157.88 395.078 160.2C394.883 162.385 394.599 165.363 394.554 169.119C394.51 173.428 394.824 175.987 396.647 177.229C397.589 177.873 398.621 177.933 399.219 177.933C399.294 177.933 399.353 177.933 399.398 177.933C403.988 177.873 408.099 173.129 410.148 170.316C410.746 170.869 411.344 171.408 411.942 171.947C414.02 173.802 416.158 175.703 417.488 177.843C419.357 180.821 418.819 185.624 416.307 188.542C414.962 190.114 413.018 191.101 410.551 191.505C409.445 191.685 406.53 192.149 404.063 190.323C403.256 189.725 402.583 188.946 402.074 188.019C402.957 187.929 403.794 187.644 404.496 187.196C406.32 186.043 407.756 183.559 407.023 181.404C406.963 181.21 406.335 179.519 404.721 179.1C403.256 178.696 401.985 179.624 401.566 179.923C399.084 181.719 399.204 185.43 399.279 186.387C398.531 186.477 397.814 186.417 397.141 186.253C396.812 186.163 396.498 186.043 396.214 185.939C395.571 185.699 395.018 185.49 394.614 185.819C394.54 185.879 394.345 186.073 394.33 186.343C394.27 187.375 396.842 188.049 397.126 188.123C397.948 188.333 398.815 188.408 399.697 188.318C399.877 188.707 400.086 189.066 400.325 189.425C400.325 189.425 401.267 190.862 402.687 191.999C404.182 193.181 406.829 194.363 409.938 194.378C414.274 194.408 417.234 192.164 418.041 191.535C418.953 190.832 422.003 188.168 422.9 183.769C423.364 181.539 423.109 179.713 423.02 179.22C422.317 175.03 419.626 172.665 417.01 170.391ZM132.656 172.545C130.593 172.755 128.873 171.543 127.662 169.059C125.569 164.749 126.048 159.945 128.844 156.623C128.844 158.868 129.531 160.709 130.907 162.1C132.85 164.076 136.184 165.063 140.325 164.929C139.339 168.326 136.02 172.201 132.656 172.545ZM133.837 159.841C132.97 158.958 131.579 157.252 132.103 155.755C132.447 154.753 133.388 153.975 134.599 153.675C134.958 153.586 135.317 153.541 135.661 153.541C136.573 153.541 137.425 153.84 138.023 154.394C140.071 156.264 140.759 159.497 140.714 161.981C137.873 162.34 135.631 161.651 133.837 159.841ZM190.155 168.67C189.138 170.286 187.643 171.887 185.535 172.59C184.877 172.8 183.681 173.204 182.41 172.77C179.495 171.767 178.777 167.233 178.628 165.871C178.105 161.158 180.243 153.945 184.757 153.406C187.09 153.122 189.198 154.663 190.588 156.04C190.498 158.868 190.349 163.372 190.155 168.67ZM365.985 155.741C366.343 154.723 367.285 153.945 368.526 153.631C368.885 153.541 369.244 153.496 369.602 153.496C370.529 153.496 371.397 153.795 371.995 154.349C374.058 156.234 374.745 159.512 374.701 162.011C371.815 162.385 369.528 161.681 367.734 159.856C366.852 158.973 365.446 157.252 365.985 155.741ZM374.312 164.869C373.325 168.296 369.976 172.246 366.583 172.575C364.519 172.785 362.755 171.573 361.544 169.059C359.421 164.689 359.93 159.811 362.815 156.474C362.785 158.763 363.473 160.634 364.863 162.04C366.822 164.031 370.171 165.033 374.312 164.869ZM315.826 163.911C315.737 165.467 315.647 167.069 315.617 168.655C314.6 170.121 313.195 171.528 311.237 172.171C310.594 172.381 309.383 172.785 308.112 172.351C305.197 171.363 304.479 166.919 304.33 165.587C303.806 160.963 305.944 153.885 310.459 153.346C312.642 153.077 314.645 154.394 316.021 155.681C316.155 158.434 316.006 161.217 315.826 163.911ZM291.697 156.743C291.816 139.235 294.044 137.364 294.732 137.215C294.776 137.2 294.971 137.17 295.24 137.17C295.539 137.17 295.913 137.215 296.301 137.409C297.124 137.813 297.482 138.681 297.617 138.995C299.919 144.562 294.776 155.83 294.732 155.935C293.835 157.865 292.818 159.781 291.697 161.621C291.682 160.409 291.682 158.718 291.697 156.743ZM233.092 163.911C232.987 165.467 232.912 167.069 232.882 168.655C231.866 170.121 230.46 171.528 228.502 172.171C227.859 172.381 226.648 172.785 225.362 172.351C222.432 171.363 221.729 166.919 221.58 165.587C221.057 160.963 223.195 153.885 227.71 153.346C229.907 153.092 231.896 154.394 233.271 155.666C233.406 158.434 233.256 161.217 233.092 163.911ZM202.802 152.179C203.072 152.179 203.326 152.239 203.52 152.374C203.804 152.568 203.998 153.017 204.088 153.631C204.357 155.576 203.221 157.387 202.444 158.374C201.92 157.97 201.113 157.177 200.739 155.965C200.56 155.351 200.171 154.079 200.904 153.137C201.367 152.538 202.16 152.179 202.802 152.179ZM189.482 186.013C189.542 188.542 189.467 191.071 189.287 193.555C189.078 196.234 188.854 197.566 187.927 198.838C186.91 200.244 185.834 200.978 184.728 200.978C182.978 200.978 181.708 199.152 181.573 198.943C179.375 195.65 183.547 188.782 189.228 180.132C189.407 179.878 189.571 179.609 189.751 179.354C189.646 181.554 189.557 183.799 189.482 186.013ZM403.764 181.419C403.854 181.419 404.706 181.449 405.109 182.033C405.633 182.811 405.005 183.978 404.795 184.322C403.883 185.819 401.925 186.043 401.267 186.073C401.118 185.445 400.923 184.158 401.641 182.961C402.254 181.958 402.986 181.419 403.764 181.419Z" fill="#1F1F1F"/>
</svg>
