<svg width="338" height="252" viewBox="0 0 338 252" fill="none" xmlns="http://www.w3.org/2000/svg">
<g opacity="0.4">
<path d="M29.1201 250.226C29.1201 250.226 -9.42861 227.049 4.67204 195.991C12.9635 177.741 48.9478 184.537 45.1572 154.161C40.2003 114.341 0.649687 87.5227 23.4754 53.4673C46.974 18.4026 105.634 60.1961 162.979 23.1203C199.988 -0.804474 265.863 -14.2248 289.743 23.8679C312.546 60.226 266.984 100.689 300.053 127.903C333.121 155.118 371.079 196.081 287.388 244.409C283.223 246.817 279.56 251.003 275.014 251.003C205.311 251.003 141.058 250.794 141.058 250.794" fill="#21D789"/>
<path d="M21.6071 216.776C12.9494 215.378 21.0539 240.798 33.4573 237.546C45.8608 234.294 28.8892 217.942 21.6071 216.776Z" fill="url(#paint0_linear_18068_21353)"/>
<path d="M16.7598 202.377C11.7954 204.171 13.4926 214.945 20.827 212.664C28.1614 210.384 21.6345 200.62 16.7598 202.377Z" fill="url(#paint1_linear_18068_21353)"/>
<path d="M275.011 250.966C197.308 250.757 141.055 250.757 141.055 250.757L275.011 250.966Z" fill="#969696"/>
</g>
<path d="M290.779 46.2078C289.364 45.8815 288.039 45.2457 286.899 44.3462L287.265 43.8901C288.333 44.7463 289.58 45.3518 290.913 45.6621L290.779 46.2078ZM295.078 46.2078L294.943 45.6322C296.272 45.3301 297.515 44.7292 298.577 43.8752L298.943 44.3387C297.809 45.2402 296.489 45.8786 295.078 46.2078ZM284.214 40.9743C283.582 39.6691 283.252 38.2379 283.25 36.7875H283.841C283.84 38.1501 284.149 39.4949 284.745 40.7201L284.214 40.9743ZM301.627 40.9743L301.096 40.7201C301.691 39.4921 301.998 38.1445 301.994 36.78H302.412H302.577C302.58 38.2317 302.255 39.6654 301.627 40.9743ZM284.723 32.8623L284.2 32.6081C284.827 31.3017 285.739 30.1521 286.869 29.2437L287.235 29.6998C286.176 30.5576 285.319 31.6371 284.723 32.8623ZM301.081 32.81C300.482 31.5869 299.619 30.5119 298.554 29.6624L298.913 29.2063C300.05 30.1087 300.972 31.2528 301.612 32.5558L301.081 32.81ZM290.869 27.9353L290.741 27.3671C291.452 27.2027 292.18 27.1199 292.91 27.1204C293.624 27.1186 294.336 27.1963 295.033 27.3522L294.898 27.9204C294.245 27.7765 293.578 27.7038 292.91 27.7036C292.223 27.7055 291.538 27.7832 290.869 27.9353Z" fill="#FFAB00"/>
<path d="M18.4445 169.024H18.2725V168.433H18.437C19.7266 168.435 21.0127 168.298 22.2724 168.022L22.3995 168.597C21.0998 168.878 19.7741 169.021 18.4445 169.024ZM14.1455 168.515C12.7949 168.195 11.4855 167.721 10.2428 167.102L10.5045 166.579C11.7096 167.171 12.979 167.623 14.2876 167.925L14.1455 168.515ZM26.3396 167.252L26.0854 166.721C27.3012 166.145 28.4475 165.433 29.5022 164.598L29.8685 165.061C28.7752 165.911 27.5918 166.638 26.3396 167.229V167.252ZM6.75126 164.844C5.67511 163.959 4.70202 162.956 3.85039 161.854L4.31393 161.495C5.1401 162.559 6.08305 163.527 7.12509 164.381L6.75126 164.844ZM32.8218 162.13L32.3657 161.764C33.2099 160.718 33.9323 159.579 34.5189 158.37L35.0497 158.624C34.4401 159.865 33.6927 161.034 32.8218 162.108V162.13ZM1.69716 158.317C1.11319 157.055 0.674256 155.731 0.388777 154.37L0.95699 154.25C1.23343 155.568 1.65987 156.85 2.22799 158.071L1.69716 158.317ZM36.4254 154.699L35.8572 154.572C36.1568 153.259 36.3073 151.918 36.3058 150.572H36.889C36.8875 151.953 36.732 153.33 36.4254 154.676V154.699ZM0.583166 150.213H0C0.0211241 148.824 0.201744 147.441 0.538308 146.093L1.10652 146.235C0.782258 147.54 0.606688 148.876 0.583166 150.22V150.213ZM35.9694 147.192C35.7175 145.873 35.3162 144.586 34.7731 143.357L35.3114 143.118C35.8715 144.39 36.2853 145.722 36.545 147.088L35.9694 147.192ZM2.48967 142.46L1.96632 142.198C2.59843 140.959 3.36839 139.795 4.26159 138.729L4.71018 139.103C3.85393 140.136 3.1166 141.262 2.5121 142.46H2.48967ZM32.7694 139.865C31.9552 138.789 31.0222 137.809 29.9882 136.942L30.3695 136.501C31.4272 137.4 32.3803 138.416 33.2105 139.529L32.7694 139.865ZM7.64096 136.307L7.28957 135.843C8.39546 135.002 9.59161 134.288 10.8559 133.712L11.0951 134.251C9.86965 134.809 8.71098 135.504 7.64096 136.322V136.307ZM26.6761 134.677C25.4884 134.058 24.2343 133.577 22.9378 133.241L23.0799 132.673C24.4289 133.021 25.7334 133.522 26.9677 134.168L26.6761 134.677ZM14.9305 133.017L14.8109 132.441C16.0055 132.208 17.2198 132.09 18.437 132.09H18.9529V132.673C18.7884 132.673 18.609 132.673 18.452 132.673C17.2693 132.678 16.09 132.799 14.9305 133.032V133.017Z" fill="#DD9221"/>
<path d="M35.7266 166.363C38.7986 166.363 41.2891 163.872 41.2891 160.8C41.2891 157.728 38.7986 155.238 35.7266 155.238C32.6545 155.238 30.1641 157.728 30.1641 160.8C30.1641 163.872 32.6545 166.363 35.7266 166.363Z" fill="#055AD9"/>
<path d="M281.16 153.959C283.422 153.959 285.257 152.124 285.257 149.862C285.257 147.599 283.422 145.764 281.16 145.764C278.897 145.764 277.062 147.599 277.062 149.862C277.062 152.124 278.897 153.959 281.16 153.959Z" fill="#C716F3"/>
<path d="M289.112 29.7369C289.112 30.3166 288.94 30.8832 288.618 31.3652C288.296 31.8472 287.838 32.2228 287.302 32.4446C286.767 32.6664 286.178 32.7245 285.609 32.6114C285.04 32.4983 284.518 32.2192 284.108 31.8093C283.699 31.3994 283.419 30.8772 283.306 30.3087C283.193 29.7402 283.251 29.1509 283.473 28.6154C283.695 28.0798 284.071 27.6221 284.553 27.3001C285.034 26.978 285.601 26.8062 286.181 26.8062C286.566 26.8062 286.947 26.882 287.302 27.0292C287.658 27.1765 287.981 27.3924 288.253 27.6646C288.525 27.9367 288.741 28.2598 288.888 28.6154C289.036 28.971 289.112 29.3521 289.112 29.7369Z" fill="#FFAB00"/>
<path d="M139.816 26.8062C139.817 27.676 139.561 28.5267 139.079 29.2506C138.596 29.9745 137.91 30.5391 137.107 30.873C136.304 31.2069 135.42 31.295 134.567 31.1263C133.713 30.9575 132.929 30.5394 132.314 29.9249C131.698 29.3103 131.279 28.527 131.108 27.6741C130.938 26.8211 131.025 25.9368 131.357 25.133C131.69 24.3293 132.253 23.6423 132.976 23.1589C133.7 22.6755 134.55 22.4175 135.42 22.4175C136.584 22.4175 137.701 22.8796 138.526 23.7024C139.35 24.5253 139.814 25.6415 139.816 26.8062Z" fill="#36B37E"/>
<path d="M143.331 40.2791C142.984 40.2795 142.637 40.257 142.292 40.2118L142.367 39.6286C143.677 39.7984 145.009 39.6152 146.225 39.0978L146.456 39.6361C145.47 40.0615 144.406 40.2803 143.331 40.2791ZM138.397 38.5669C137.278 37.681 136.42 36.5078 135.915 35.1726L136.46 34.9707C136.93 36.2062 137.726 37.2913 138.763 38.1109L138.397 38.5669ZM149.709 37.0043L149.238 36.6604C150.015 35.5911 150.486 34.3294 150.598 33.0119L151.182 33.0642C151.064 34.4848 150.563 35.8467 149.731 37.0043H149.709ZM135.982 32.3689H135.406C135.407 30.9426 135.792 29.5429 136.52 28.3167L137.029 28.6157C136.353 29.7506 135.999 31.0481 136.004 32.3689H135.982ZM149.918 29.2139C149.355 28.0043 148.474 26.9705 147.369 26.2233L147.69 25.7373C148.882 26.5226 149.841 27.6152 150.464 28.8998L149.918 29.2139ZM139.892 25.9242L139.616 25.4083C140.872 24.7327 142.288 24.4098 143.713 24.4738V25.0569C142.385 25.0013 141.066 25.3007 139.892 25.9242Z" fill="#36B37E"/>
<path d="M290.173 165.547C288.764 165.446 287.391 165.051 286.143 164.388L286.42 163.865C287.595 164.493 288.889 164.868 290.218 164.964L290.173 165.547ZM294.322 165.009L294.136 164.456C295.39 164.014 296.54 163.319 297.515 162.415L297.911 162.841C296.872 163.808 295.642 164.547 294.3 165.009H294.322ZM282.921 161.704C282.041 160.602 281.4 159.329 281.037 157.966L281.605 157.817C281.947 159.104 282.553 160.305 283.384 161.346L282.921 161.704ZM300.341 159.461L299.803 159.222C300.34 158.005 300.615 156.688 300.61 155.357H301.193C301.186 156.761 300.888 158.148 300.319 159.432L300.341 159.461ZM300.55 154.303C300.409 152.985 299.994 151.712 299.332 150.564L299.84 150.273C300.543 151.497 300.984 152.854 301.134 154.258L300.55 154.303ZM281.388 153.899L280.812 153.817C281.029 152.415 281.538 151.075 282.308 149.884L282.801 150.198C282.074 151.309 281.585 152.559 281.366 153.869L281.388 153.899ZM296.707 147.596C295.638 146.803 294.416 146.238 293.119 145.936L293.253 145.368C294.627 145.687 295.92 146.285 297.051 147.125L296.707 147.596ZM285.493 147.365L285.164 146.879C286.333 146.083 287.654 145.538 289.044 145.279L289.149 145.854C287.841 146.093 286.596 146.599 285.493 147.342V147.365Z" fill="#C716F3"/>
<path d="M217.165 170.437L220.089 181.427L281.097 181.704C282.854 181.704 283.713 183.05 283.026 184.695L255.953 249.149C255.601 249.808 255.077 250.359 254.438 250.744C253.798 251.13 253.066 251.336 252.32 251.34L152.247 250.884C150.752 250.884 149.69 249.89 149.892 248.641L160 186.683L160.905 181.143L162.46 171.611C162.636 170.744 163.103 169.963 163.782 169.396C164.461 168.83 165.313 168.511 166.198 168.493L214.705 168.71C215.251 168.672 215.794 168.823 216.242 169.137C216.689 169.452 217.016 169.911 217.165 170.437Z" fill="#E69230"/>
<path d="M166.219 168.516L214.726 168.732C215.264 168.7 215.797 168.851 216.239 169.161C216.68 169.47 217.003 169.92 217.156 170.437L220.079 181.428L279.951 181.697" stroke="#121D30" stroke-width="0.75" stroke-miterlimit="10"/>
<path d="M157.293 194.481H245.852V149.084H157.293V194.481Z" fill="white"/>
<path d="M165.32 149.084H228.369" stroke="#121D30" stroke-width="0.75" stroke-miterlimit="10"/>
<path d="M194.475 167.895L199.529 177.614H251.55C252.268 177.614 252.957 177.9 253.464 178.407C253.972 178.915 254.257 179.603 254.257 180.321V248.641C254.255 249.358 253.969 250.044 253.462 250.55C252.954 251.056 252.267 251.34 251.55 251.34H151.777C151.06 251.34 150.373 251.056 149.866 250.55C149.358 250.044 149.072 249.358 149.07 248.641V169.144C149.072 168.427 149.358 167.741 149.866 167.235C150.373 166.729 151.06 166.445 151.777 166.445H192.068C192.563 166.443 193.05 166.577 193.474 166.833C193.899 167.089 194.245 167.456 194.475 167.895Z" fill="#EDB837"/>
<path d="M151.773 166.445H192.064C192.559 166.444 193.044 166.579 193.467 166.835C193.89 167.09 194.235 167.457 194.464 167.895L199.518 177.614H251.54" stroke="#121D30" stroke-width="0.75" stroke-miterlimit="10"/>
<path d="M247.725 194.436C255.62 194.436 262.02 188.036 262.02 180.141C262.02 172.246 255.62 165.846 247.725 165.846C239.83 165.846 233.43 172.246 233.43 180.141C233.43 188.036 239.83 194.436 247.725 194.436Z" fill="#121D30"/>
<path d="M253.824 185.472L248.508 180.164L253.824 174.848C253.916 174.745 253.967 174.612 253.967 174.474C253.967 174.336 253.916 174.203 253.824 174.101C253.723 174.005 253.589 173.952 253.45 173.952C253.311 173.952 253.177 174.005 253.076 174.101L247.76 179.416L242.445 174.101C242.34 174.045 242.221 174.025 242.104 174.043C241.987 174.06 241.878 174.115 241.795 174.198C241.711 174.282 241.657 174.39 241.639 174.507C241.621 174.624 241.642 174.744 241.697 174.848L247.013 180.164L241.697 185.472C241.642 185.577 241.621 185.696 241.639 185.813C241.657 185.93 241.711 186.038 241.795 186.122C241.878 186.206 241.987 186.26 242.104 186.278C242.221 186.295 242.34 186.275 242.445 186.22L247.76 180.912L253.076 186.22C253.177 186.315 253.311 186.368 253.45 186.368C253.589 186.368 253.723 186.315 253.824 186.22C253.917 186.118 253.969 185.984 253.969 185.846C253.969 185.708 253.917 185.574 253.824 185.472Z" fill="white"/>
<path d="M190.094 228.208C198.871 216.335 209.936 221.21 212.748 228.208" stroke="#121D30" stroke-width="0.75" stroke-miterlimit="10"/>
<path d="M188.268 203.356C188.268 206.459 186.878 208.971 185.173 208.971C183.468 208.971 182.07 206.459 182.07 203.356C182.07 200.253 183.461 197.749 185.173 197.749C186.885 197.749 188.268 200.261 188.268 203.356Z" fill="#121D30"/>
<path d="M220.776 203.356C220.776 206.459 219.386 208.971 217.673 208.971C215.961 208.971 214.578 206.459 214.578 203.356C214.578 200.253 215.969 197.749 217.673 197.749C219.378 197.749 220.776 200.261 220.776 203.356Z" fill="#121D30"/>
<path d="M91.5627 40.1518C91.5627 40.1518 97.5439 31.4118 105.02 35.7706C114.396 41.221 103.076 54.2076 110.007 57.9683C116.938 61.729 124.1 62.0205 126.097 72.4129C128.706 86.0051 104.123 105.115 83.3311 93.018C62.539 80.9211 69.9407 58.2748 79.6975 53.7665C91.4655 48.3461 91.5627 40.1518 91.5627 40.1518Z" fill="#121D30"/>
<path d="M95.6668 60.6526V72.615C95.7365 73.3935 95.6434 74.178 95.3932 74.9185C95.1431 75.6591 94.7415 76.3394 94.2141 76.9162C93.6866 77.493 93.0447 77.9537 92.3295 78.2689C91.6142 78.584 90.8411 78.7468 90.0595 78.7468C89.2778 78.7468 88.5048 78.584 87.7895 78.2689C87.0742 77.9537 86.4324 77.493 85.9049 76.9162C85.3774 76.3394 84.9758 75.6591 84.7257 74.9185C84.4756 74.178 84.3824 73.3935 84.4521 72.615V60.6526H95.6668Z" fill="#D28A7B"/>
<path d="M75.8427 56.9441C76.0092 57.7617 76.4145 58.5114 77.0073 59.0986C77.6002 59.6857 78.3538 60.0837 79.1729 60.2423C79.9921 60.4009 80.8398 60.313 81.609 59.9896C82.3781 59.6662 83.034 59.1219 83.4936 58.4256C83.9533 57.7293 84.1961 56.9123 84.1912 56.078C84.1864 55.2436 83.9341 54.4295 83.4664 53.7386C82.9987 53.0477 82.3365 52.511 81.5636 52.1966C80.7908 51.8822 79.9421 51.8041 79.1248 51.9722C78.0308 52.1973 77.0708 52.8472 76.4555 53.7794C75.8401 54.7115 75.6197 55.8497 75.8427 56.9441Z" fill="#D28A7B"/>
<path d="M77 55.344L80.3345 57.6019" stroke="#121D30" stroke-width="0.75" stroke-miterlimit="10"/>
<path d="M99.6956 56.1287C99.8631 56.9439 100.269 57.6911 100.861 58.276C101.453 58.8608 102.205 59.257 103.022 59.4145C103.839 59.572 104.685 59.4837 105.452 59.1608C106.219 58.8379 106.873 58.2948 107.331 57.6003C107.79 56.9057 108.032 56.0909 108.028 55.2587C108.023 54.4265 107.772 53.6142 107.306 52.9247C106.84 52.2351 106.181 51.6991 105.41 51.3845C104.64 51.0698 103.793 50.9906 102.978 51.1569C102.436 51.2674 101.92 51.4838 101.462 51.7936C101.004 52.1033 100.611 52.5005 100.306 52.9623C100.001 53.4241 99.7901 53.9414 99.6854 54.4847C99.5807 55.0281 99.5842 55.5867 99.6956 56.1287Z" fill="#D28A7B"/>
<path d="M103.426 55.2543C103.426 55.2543 105.834 52.6151 104.989 46.3647H101.609L103.426 55.2543Z" fill="#121D30"/>
<path d="M103.133 57.1083L106.4 53.9458" stroke="#121D30" stroke-width="0.75" stroke-miterlimit="10"/>
<path d="M92.8671 38.7837C95.774 38.7837 98.5619 39.9385 100.617 41.9939C102.673 44.0494 103.828 46.8373 103.828 49.7442V58.716C103.828 58.9361 103.813 59.1559 103.783 59.3739C103.62 60.4452 103.07 61.4192 102.235 62.1103L97.7941 65.8486C97.1331 66.398 96.326 66.7424 95.4719 66.8393C94.6179 66.9363 93.7541 66.7816 92.9867 66.3943L84.3364 62.058C83.608 61.6872 82.9963 61.1223 82.5688 60.4257C82.1413 59.729 81.9147 58.9277 81.9141 58.1104V49.7442C81.9131 48.3052 82.1957 46.8801 82.7457 45.5504C83.2957 44.2206 84.1023 43.0123 85.1195 41.9944C86.1367 40.9765 87.3445 40.1691 88.6738 39.6182C90.0032 39.0672 91.4281 38.7837 92.8671 38.7837Z" fill="#D28A7B"/>
<path d="M87.7344 63.6802L92.7661 66.1997C93.6176 66.6271 94.5572 66.8498 95.5099 66.8502H95.8837" stroke="#121D30" stroke-width="0.75" stroke-miterlimit="10"/>
<path d="M94.5853 38.7837L97.374 57.9683H93.875" stroke="#121D30" stroke-width="0.75" stroke-miterlimit="10"/>
<path d="M103.828 52.72V58.3722C103.694 58.3836 103.559 58.3836 103.424 58.3722C103.039 58.392 102.655 58.3333 102.293 58.1996C101.932 58.0659 101.601 57.8601 101.322 57.5947C101.042 57.3293 100.82 57.0098 100.668 56.6557C100.516 56.3016 100.438 55.9203 100.438 55.5349C100.438 55.1495 100.516 54.7682 100.668 54.4141C100.82 54.06 101.042 53.7405 101.322 53.4751C101.601 53.2097 101.932 53.0039 102.293 52.8702C102.655 52.7366 103.039 52.6778 103.424 52.6976C103.559 52.6936 103.694 52.7011 103.828 52.72Z" fill="#CB705D"/>
<path d="M90.4634 55.531C90.4634 56.0929 90.2967 56.6422 89.9846 57.1094C89.6724 57.5766 89.2287 57.9408 88.7095 58.1558C88.1904 58.3708 87.6192 58.4271 87.068 58.3175C86.5169 58.2079 86.0107 57.9373 85.6134 57.5399C85.216 57.1426 84.9455 56.6364 84.8358 56.0853C84.7262 55.5342 84.7825 54.9629 84.9975 54.4438C85.2126 53.9246 85.5767 53.4809 86.0439 53.1688C86.5111 52.8566 87.0604 52.6899 87.6223 52.6899C87.9954 52.6899 88.3648 52.7634 88.7095 52.9062C89.0542 53.049 89.3674 53.2583 89.6312 53.5221C89.8951 53.7859 90.1043 54.0991 90.2471 54.4438C90.3899 54.7885 90.4634 55.1579 90.4634 55.531Z" fill="#CB705D"/>
<path d="M81.9141 48.712V55.8146C81.9141 55.8146 84.7327 53.31 84.6505 48.3381L81.9141 48.712Z" fill="#121D30"/>
<path d="M107 37.2732C99.5234 32.9144 91.5909 40.1442 91.5909 40.1442C91.5909 40.1442 95.4189 48.3683 79.7556 53.7663C77.1762 54.656 73.9614 58.9999 72.4062 61.4596C72.4062 61.4596 75.838 51.5608 76.8921 45.1534C77.9463 38.7461 83.6733 39.733 83.6733 39.733C83.6733 39.733 87.1274 31.307 96.6674 31.3444C103.262 31.3743 107 37.2732 107 37.2732Z" fill="#121D30"/>
<path d="M101.576 53.2428C101.576 54.2372 101.135 55.0297 100.596 55.0297C100.058 55.0297 99.6094 54.2372 99.6094 53.2428C99.5812 52.9249 99.6296 52.605 99.7506 52.3097C99.8716 52.0144 100.062 51.7524 100.305 51.5457L101.501 52.6073C101.546 52.8163 101.571 53.0291 101.576 53.2428Z" fill="#121D30"/>
<path d="M91.2944 53.2431C91.2944 54.2375 90.8533 55.03 90.315 55.03C89.7767 55.03 89.3281 54.2375 89.3281 53.2431C89.3297 52.9903 89.3649 52.7389 89.4328 52.4955L90.8085 51.7478C91.1456 52.1713 91.3182 52.7024 91.2944 53.2431Z" fill="#121D30"/>
<path d="M99.5156 45.4151C100.884 44.5254 101.759 44.7273 101.534 46.6113L99.5156 45.4151Z" fill="#121D30"/>
<path d="M88.4287 46.664C88.1221 45.0715 88.6231 44.3463 90.2978 45.2509L88.4287 46.664Z" fill="#121D30"/>
<path d="M92.8672 61.5271C94.3625 59.5234 96.2092 60.3459 96.6802 61.5271" stroke="#121D30" stroke-width="0.75" stroke-miterlimit="10"/>
<path d="M113.853 112.719C115.116 112.066 116.068 110.939 116.501 109.585C116.934 108.231 116.813 106.761 116.163 105.496L103.834 80.8239C103.182 79.5609 102.054 78.6088 100.7 78.1769C99.3455 77.7451 97.8751 77.8689 96.6119 78.5212C95.9852 78.8428 95.4282 79.285 94.9727 79.8224C94.5172 80.3598 94.1722 80.9818 93.9576 81.6527C93.743 82.3237 93.6629 83.0304 93.722 83.7324C93.781 84.4343 93.978 85.1178 94.3017 85.7434L106.376 109.421C106.855 110.37 107.552 111.192 108.41 111.82C109.267 112.448 110.261 112.863 111.311 113.033C112.17 113.196 113.059 113.086 113.853 112.719Z" fill="#D28A7B"/>
<path d="M63.5085 117.616C62.1316 117.263 60.9509 116.379 60.2261 115.156C59.5013 113.934 59.2916 112.473 59.6432 111.096L66.1178 84.308C66.2914 83.6256 66.5978 82.984 67.0195 82.42C67.4411 81.856 67.9698 81.3805 68.5752 81.0209C69.1806 80.6612 69.851 80.4244 70.548 80.3239C71.245 80.2234 71.9549 80.2612 72.6373 80.4352C73.3198 80.6088 73.9614 80.9152 74.5254 81.3368C75.0894 81.7585 75.5648 82.2871 75.9245 82.8926C76.2841 83.498 76.5209 84.1684 76.6214 84.8654C76.7219 85.5624 76.6841 86.2723 76.5101 86.9547L70.0579 112.741C69.805 113.773 69.3114 114.73 68.6175 115.535C67.9236 116.339 67.049 116.968 66.0655 117.369C65.2595 117.715 64.3658 117.801 63.5085 117.616Z" fill="#D28A7B"/>
<path d="M113.653 91.4255L103.373 90.7451L92.5547 94.2665L103.373 94.6852L113.653 91.4255Z" fill="#CB9824"/>
<path d="M110.3 81.8258L111.982 95.2835L95.7578 97.5264L98.1353 73.3923L102.569 73.9979C104.541 74.2655 106.369 75.1786 107.768 76.5948C109.166 78.0109 110.057 79.8503 110.3 81.8258Z" fill="#BC80F4"/>
<path d="M113.653 91.4258L103.373 94.6855L92.5547 94.2668L94.6257 100.33L104.136 99.8368L114.214 96.6892L113.653 91.4258Z" fill="white"/>
<path d="M102.062 116.18H80.6198L66.8331 89.4442C66.2958 88.4006 65.9768 87.2585 65.8956 86.0875C65.8145 84.9166 65.973 83.7414 66.3613 82.6337C66.7497 81.5261 67.3598 80.5092 68.1543 79.6452C68.9489 78.7813 69.9112 78.0884 70.9826 77.6089L85.1879 71.2314L98.0923 73.4071C100.244 73.7713 102.178 74.9368 103.506 76.6693C104.833 78.4018 105.456 80.5726 105.247 82.7452L102.062 116.18Z" fill="#BC80F4"/>
<path d="M96.2995 80.8838L97.892 70.3644L79.8438 68.6074L81.5185 80.8838H96.2995Z" fill="#BC80F4"/>
<path d="M81.8838 76.413C84.5903 79.8746 87.7753 81.8036 90.9079 81.8036C93.7714 81.8036 96.1415 80.1737 97.5022 77.37C97.3153 82.1923 96.6125 89.9978 94.1079 92.5473C93.9065 92.7767 93.6596 92.9616 93.3829 93.0903C93.1061 93.2191 92.8056 93.2887 92.5004 93.2949C92.2461 93.2923 91.9937 93.2494 91.7528 93.1678C86.9005 91.6276 83.424 81.6466 81.9063 76.413M80.5156 73.3477C80.5156 73.3477 84.6127 91.4856 91.5883 93.7061C91.8901 93.8044 92.2054 93.8549 92.5229 93.8556C98.504 93.8556 98.1526 73.4075 98.1526 73.4075C97.405 78.469 94.4593 81.2428 90.9304 81.2428C87.5809 81.2428 83.6782 78.7457 80.5156 73.3477Z" fill="white"/>
<path d="M106.802 240.88H117.613L113.209 207.446H102.398L106.802 240.88Z" fill="#D28A7B"/>
<path d="M105.785 240.828H117.956L116.005 224.918L103.945 225.845L105.785 240.828Z" fill="white"/>
<path d="M104.837 250.757H132.425L131.677 248.297C131.449 247.5 131.099 246.743 130.638 246.054C129.664 244.603 128.248 243.505 126.601 242.921L125.853 242.66C125.128 242.405 124.435 242.067 123.79 241.65C123.251 241.298 122.75 240.893 122.294 240.439C121.279 239.448 120.493 238.246 119.992 236.918H104.508L104.762 246.054L104.837 250.757Z" fill="#BC80F4"/>
<path d="M115.438 238.488H120.895" stroke="#121D30" stroke-width="0.75" stroke-miterlimit="10"/>
<path d="M116.844 240.387H122.302" stroke="#121D30" stroke-width="0.75" stroke-miterlimit="10"/>
<path d="M109.993 244.118C109.99 244.205 110.004 244.292 110.036 244.374C110.067 244.455 110.114 244.53 110.175 244.593C110.236 244.655 110.308 244.705 110.389 244.739C110.469 244.773 110.556 244.791 110.643 244.791C110.823 244.789 110.996 244.718 111.125 244.593C111.254 244.468 111.331 244.298 111.338 244.118C111.341 244.03 111.327 243.942 111.295 243.86C111.263 243.778 111.215 243.704 111.153 243.641C111.092 243.578 111.018 243.528 110.937 243.494C110.856 243.461 110.768 243.444 110.68 243.445C110.501 243.447 110.329 243.518 110.201 243.643C110.073 243.769 109.998 243.939 109.993 244.118Z" stroke="#121D30" stroke-width="0.75" stroke-miterlimit="10"/>
<path d="M113.305 244.118C113.303 244.205 113.318 244.292 113.35 244.373C113.382 244.454 113.429 244.528 113.49 244.59C113.55 244.653 113.622 244.703 113.702 244.737C113.782 244.772 113.868 244.79 113.955 244.791C114.135 244.789 114.308 244.718 114.437 244.593C114.567 244.468 114.643 244.298 114.651 244.118C114.655 244.03 114.641 243.943 114.61 243.861C114.579 243.779 114.532 243.704 114.471 243.641C114.41 243.578 114.337 243.528 114.256 243.495C114.175 243.461 114.088 243.444 114 243.445C113.82 243.447 113.648 243.518 113.518 243.643C113.389 243.768 113.313 243.938 113.305 244.118Z" stroke="#121D30" stroke-width="0.75" stroke-miterlimit="10"/>
<path d="M104.825 250.757H132.413L131.665 248.297C131.437 247.5 131.087 246.743 130.626 246.054H104.75L104.825 250.757Z" fill="white"/>
<path d="M104.68 248.417H122.048" stroke="#121D30" stroke-width="0.75" stroke-miterlimit="10"/>
<path d="M116.945 250.757H132.414L131.667 248.297C131.438 247.5 131.088 246.743 130.627 246.054C129.653 244.603 128.237 243.505 126.59 242.921L125.842 242.66C125.117 242.405 124.425 242.067 123.779 241.65C121.979 242.49 120.414 243.76 119.222 245.348C118.03 246.937 117.248 248.794 116.945 250.757Z" fill="white"/>
<path d="M120.016 236.933L120.375 235.557C120.436 235.335 120.445 235.101 120.4 234.874C120.356 234.648 120.26 234.434 120.119 234.251C119.979 234.068 119.798 233.92 119.59 233.818C119.383 233.717 119.155 233.664 118.924 233.666H117.541C116.995 233.671 116.459 233.811 115.979 234.071C115.5 234.332 115.091 234.706 114.79 235.161L113.586 236.948L120.016 236.933Z" fill="#BC80F4"/>
<path d="M74.7422 110.864L104.551 109.25L101.942 116.808L77.1197 116.539L74.7422 110.864Z" fill="#121D30"/>
<path d="M101.941 116.808C101.941 116.808 112.154 126.244 112.752 143.088H67.0859C67.0859 127.26 77.1194 116.539 77.1194 116.539L101.941 116.808Z" fill="#121D30"/>
<path d="M75.6586 123.133H82.8136C82.8136 123.133 79.2847 131.29 72.2344 131.821" stroke="white" stroke-width="0.75" stroke-miterlimit="10"/>
<path d="M106.823 123.133H102.875C102.875 123.133 104.37 130.856 110.793 131.821" stroke="white" stroke-width="0.75" stroke-miterlimit="10"/>
<path d="M93.4421 117.317L92.7916 129.81C92.7916 129.81 90.4739 128.576 90.9674 124.419" stroke="white" stroke-width="0.75" stroke-miterlimit="10"/>
<path d="M85.1061 115.515H78.6016V118.102H85.1061V115.515Z" fill="#121D30"/>
<path d="M100.914 115.515H98.6484V118.102H100.914V115.515Z" fill="#121D30"/>
<path d="M97.149 115.515H86.9062V118.102H97.149V115.515Z" fill="#121D30"/>
<path d="M95.2328 114.999H90.8516V118.617H95.2328V114.999Z" fill="white"/>
<path d="M64.9609 240.858L75.7719 241.344L81.3045 205.061L70.4935 204.575L64.9609 240.858Z" fill="#D28A7B"/>
<path d="M64.3438 240.828L76.5005 241.374L78.6014 224.843L66.4671 225.576L64.3438 240.828Z" fill="white"/>
<path d="M61.9766 250.757H89.5947L89.348 248.297C89.2753 247.519 89.0679 246.76 88.7349 246.054C88.0474 244.602 86.8181 243.477 85.3107 242.921L84.6153 242.66C83.9496 242.409 83.3208 242.07 82.7462 241.65C82.2692 241.304 81.8395 240.897 81.4678 240.439C80.6312 239.426 80.0744 238.212 79.8528 236.918H64.3317L62.8364 246.054L61.9766 250.757Z" fill="#BC80F4"/>
<path d="M74.9609 238.488H80.4188" stroke="#121D30" stroke-width="0.75" stroke-miterlimit="10"/>
<path d="M76.0078 240.387H81.4582" stroke="#121D30" stroke-width="0.75" stroke-miterlimit="10"/>
<path d="M68.4595 244.118C68.4355 244.198 68.4311 244.282 68.4464 244.364C68.4618 244.446 68.4965 244.523 68.5477 244.589C68.5989 244.655 68.6652 244.707 68.7408 244.743C68.8165 244.778 68.8995 244.794 68.9828 244.791C69.1737 244.781 69.3564 244.71 69.5043 244.589C69.6523 244.468 69.7577 244.303 69.8052 244.118C69.8291 244.038 69.8336 243.953 69.8182 243.871C69.8029 243.789 69.7681 243.712 69.7169 243.646C69.6657 243.581 69.5995 243.528 69.5238 243.493C69.4482 243.458 69.3652 243.441 69.2819 243.445C69.0906 243.454 68.9073 243.524 68.7592 243.645C68.611 243.766 68.5059 243.932 68.4595 244.118Z" stroke="#121D30" stroke-width="0.75" stroke-miterlimit="10"/>
<path d="M71.7434 244.118C71.718 244.197 71.7121 244.281 71.7263 244.363C71.7406 244.446 71.7745 244.523 71.8252 244.589C71.8759 244.655 71.9419 244.708 72.0175 244.743C72.0931 244.778 72.1761 244.795 72.2593 244.791C72.4515 244.782 72.6359 244.712 72.7853 244.591C72.9347 244.47 73.0413 244.304 73.0892 244.118C73.1131 244.038 73.1175 243.953 73.1022 243.871C73.0868 243.789 73.0521 243.712 73.0009 243.646C72.9497 243.581 72.8835 243.528 72.8078 243.493C72.7321 243.458 72.6492 243.441 72.5658 243.445C72.3742 243.452 72.1903 243.522 72.0419 243.644C71.8936 243.765 71.7888 243.931 71.7434 244.118Z" stroke="#121D30" stroke-width="0.75" stroke-miterlimit="10"/>
<path d="M61.9766 250.757H89.5947L89.348 248.297C89.2753 247.52 89.0679 246.761 88.7349 246.054H62.8139L61.9766 250.757Z" fill="white"/>
<path d="M79.8444 248.417H62.4766" stroke="#121D30" stroke-width="0.75" stroke-miterlimit="10"/>
<path d="M74.1016 250.757H89.6003L89.3536 248.297C89.2809 247.519 89.0735 246.76 88.7405 246.054C88.0531 244.602 86.8237 243.477 85.3163 242.921L84.621 242.66C83.9552 242.409 83.3264 242.07 82.7519 241.65C80.7642 242.497 78.9711 243.741 77.4833 245.307C75.9955 246.874 74.8446 248.728 74.1016 250.757Z" fill="white"/>
<path d="M79.8513 236.933L80.4719 235.557C80.5889 235.367 80.6525 235.149 80.656 234.926C80.6595 234.703 80.6028 234.483 80.4918 234.289C80.3809 234.096 80.2198 233.936 80.0255 233.826C79.8312 233.716 79.6109 233.661 79.3878 233.666H78.0046C77.4221 233.688 76.8508 233.833 76.3279 234.09C75.8049 234.348 75.342 234.713 74.9692 235.161L73.4141 236.948L79.8513 236.933Z" fill="#BC80F4"/>
<path d="M90.9375 142.273L97.4495 221.412H120.058L112.694 142.595L90.9375 142.273Z" fill="#121D30"/>
<path d="M70.6734 178.541L62.7109 221.411H85.3198L92.4225 178.863L70.6734 178.541Z" fill="#121D30"/>
<path d="M70.6761 178.541C70.6761 178.541 67.0949 155.043 67.1173 142.968H89.7262L92.4252 178.855L70.6761 178.541Z" fill="#121D30"/>
<path d="M63.7484 85.9676L61.4531 97.7431L77.5425 100.808L77.849 74.551L70.3576 77.8108C68.6741 78.528 67.1916 79.6463 66.0396 81.0681C64.8876 82.4899 64.101 84.172 63.7484 85.9676Z" fill="#BC80F4"/>
<path d="M59.9634 93.7881L70.1538 95.874L77.6453 96.8385L75.2603 102.79L59.1484 99.0142L59.9634 93.7881Z" fill="white"/>
<path d="M102.2 85.2275C109.864 96.5619 109.468 101.997 100.055 106.162L102.2 85.2275Z" fill="#BC80F4"/>
<path d="M107.56 94.6851L103.336 86.9693L105.28 82.7451" stroke="#121D30" stroke-width="0.75" stroke-miterlimit="10"/>
<path d="M47.1257 109.519C44.0855 108.089 40.766 107.351 37.4062 107.358L38.9539 98.1545C47.806 99.1938 50.5873 102.984 51.8359 105.399L47.1257 109.519Z" fill="#D28A7B"/>
<path d="M37.3896 107.358C37.3896 107.358 33.0533 105.579 31.1094 102.087L33.128 96.8536C33.128 96.8536 35.9691 99.8068 38.6083 100.24C38.6083 100.24 35.1616 97.5265 34.5112 95.1489L36.1111 94.6331C37.8337 96.6495 40.0303 98.2064 42.5035 99.1638L37.3896 107.358Z" fill="#D28A7B"/>
<path d="M31.6562 100.778C33.2925 102.426 35.114 103.878 37.0842 105.107" stroke="#121D30" stroke-width="0.75" stroke-miterlimit="10"/>
<path d="M32.4141 98.7451C34.0054 100.516 35.938 101.948 38.0962 102.954" stroke="#121D30" stroke-width="0.75" stroke-miterlimit="10"/>
<path d="M70.3061 111.096L48.4449 103.619L45.1328 107.47C48.719 111.705 52.9412 115.357 57.6484 118.296C58.9202 119.048 60.3684 119.452 61.8462 119.464C63.324 119.477 64.7788 119.098 66.0632 118.367C67.3476 117.636 68.4159 116.579 69.1597 115.302C69.9035 114.025 70.2964 112.574 70.2986 111.096H70.3061Z" fill="#D28A7B"/>
<path d="M100.898 221.412L93.0329 140.531H89.0703" stroke="white" stroke-width="0.75" stroke-miterlimit="10"/>
<path d="M78.585 118.102C78.585 118.102 69.0151 131.47 70.9889 146.108C72.9627 160.747 74.7272 178.541 74.7272 178.541L65.875 221.412" stroke="white" stroke-width="0.75" stroke-miterlimit="10"/>
<path d="M67.4871 109.691L60.5938 107.694" stroke="#121D30" stroke-width="0.75" stroke-miterlimit="10"/>
<path d="M128.002 101.153C130.638 99.0752 133.702 97.6094 136.974 96.8611L133.422 88.2781C125.019 91.2687 123.157 95.5901 122.484 98.2293L128.002 101.153Z" fill="#D28A7B"/>
<path d="M137.005 96.8611C137.005 96.8611 140.833 94.1546 141.939 90.3117L138.807 85.6987C138.807 85.6987 136.661 89.1902 134.216 90.1846C134.216 90.1846 136.967 86.7678 137.065 84.3081L135.39 84.166C134.159 86.5198 132.36 88.5293 130.156 90.0126L137.005 96.8611Z" fill="#D28A7B"/>
<path d="M141.11 89.1599C139.885 91.1324 138.434 92.9563 136.789 94.5953" stroke="#121D30" stroke-width="0.75" stroke-miterlimit="10"/>
<path d="M139.895 87.3357C138.741 89.417 137.18 91.245 135.305 92.7113" stroke="#121D30" stroke-width="0.75" stroke-miterlimit="10"/>
<path d="M105.773 107.889L125.391 95.687L129.488 98.6776C126.94 103.619 123.641 108.136 119.709 112.068C118.639 113.087 117.318 113.805 115.88 114.149C114.443 114.493 112.94 114.45 111.524 114.026C110.109 113.601 108.83 112.81 107.819 111.732C106.807 110.655 106.099 109.329 105.766 107.889H105.773Z" fill="#D28A7B"/>
<path d="M108.188 105.893L114.46 102.394" stroke="#121D30" stroke-width="0.75" stroke-miterlimit="10"/>
<path d="M66.0312 228.656L78.1731 228.193" stroke="#121D30" stroke-width="0.75" stroke-miterlimit="10"/>
<path d="M103.945 228.425L116.311 227.415" stroke="#121D30" stroke-width="0.75" stroke-miterlimit="10"/>
<path d="M8.24219 250.966H331.907" stroke="#121D30" stroke-miterlimit="10"/>
<path d="M207.776 66.4767L247.184 75.0746C241.203 57.1834 263.55 45.4753 257.547 27.584L218.138 18.9861C224.142 36.8848 201.772 48.5855 207.776 66.4767Z" fill="white"/>
<path d="M252.785 50.5219C256.718 43.3893 260.404 36.2044 257.518 27.584L218.109 18.9861" stroke="#121D30" stroke-width="0.75" stroke-miterlimit="10"/>
<path d="M207.766 66.4766L247.174 75.0746C245.26 69.37 246.225 64.2935 248.243 59.4487" stroke="#121D30" stroke-width="0.75" stroke-miterlimit="10"/>
<path d="M180.733 122.879L215.454 102.371C198.886 93.3396 207.312 69.542 190.736 60.5029L156.016 81.0184C172.584 90.0575 164.158 113.855 180.733 122.879Z" fill="white"/>
<path d="M180.719 122.879L215.44 102.371C207.926 98.2742 205.556 91.1566 203.657 83.7324" stroke="#121D30" stroke-width="0.75" stroke-miterlimit="10"/>
<path d="M176.456 68.9585L156.016 81.033C164.718 85.7731 166.528 94.5953 168.681 103.208" stroke="#121D30" stroke-width="0.75" stroke-miterlimit="10"/>
<path d="M251.605 142.146L216.906 121.631C233.482 112.607 225.048 88.809 241.623 79.7625L276.352 100.27C259.746 109.317 268.18 133.137 251.605 142.146Z" fill="white"/>
<path d="M264.68 118.356C262.318 127.462 260.852 137.107 251.604 142.146L228.539 128.524" stroke="#121D30" stroke-width="0.75" stroke-miterlimit="10"/>
<path d="M230.258 96.7186C232.097 89.93 234.654 83.56 241.592 79.7844L260.283 90.7973" stroke="#121D30" stroke-width="0.75" stroke-miterlimit="10"/>
<defs>
<linearGradient id="paint0_linear_18068_21353" x1="18.6961" y1="217.726" x2="36.511" y2="221.205" gradientUnits="userSpaceOnUse">
<stop stop-color="#05E389"/>
<stop offset="1" stop-color="#009A62"/>
</linearGradient>
<linearGradient id="paint1_linear_18068_21353" x1="14.2868" y1="202.681" x2="23.4237" y2="204.468" gradientUnits="userSpaceOnUse">
<stop stop-color="#05E389"/>
<stop offset="1" stop-color="#009A62"/>
</linearGradient>
</defs>
</svg>
