<svg width="424" height="336" viewBox="0 0 424 336" fill="none" xmlns="http://www.w3.org/2000/svg">
<g clip-path="url(#clip0_18166_2863)">
<path opacity="0.15" d="M51.3605 98.453C50.5827 98.4528 49.808 98.5509 49.0548 98.745C48.954 94.5012 47.3838 90.4236 44.6118 87.2071C41.8398 83.9906 38.0375 81.8343 33.8529 81.1055C29.6683 80.3767 25.3602 81.1205 21.6629 83.2103C17.9656 85.3001 15.1078 88.6065 13.5765 92.5661H13C9.68273 92.5661 6.50132 93.883 4.15565 96.2272C1.80997 98.5714 0.492188 101.751 0.492188 105.066C0.492188 108.381 1.80997 111.561 4.15565 113.905C6.50132 116.249 9.68273 117.566 13 117.566H51.3526C53.8381 117.495 56.1978 116.458 57.9305 114.675C59.6633 112.893 60.6326 110.506 60.6326 108.021C60.6326 105.536 59.6633 103.149 57.9305 101.367C56.1978 99.5851 53.8381 98.5481 51.3526 98.4767L51.3605 98.453Z" fill="url(#paint0_linear_18166_2863)"/>
<path opacity="0.15" d="M407.148 176.467C406.677 176.469 406.208 176.527 405.751 176.641C405.69 174.063 404.737 171.585 403.053 169.631C401.369 167.677 399.058 166.367 396.516 165.925C393.974 165.483 391.357 165.936 389.111 167.206C386.865 168.477 385.13 170.486 384.202 172.893H383.846C381.832 172.893 379.899 173.692 378.475 175.116C377.05 176.54 376.25 178.471 376.25 180.484C376.25 182.497 377.05 184.428 378.475 185.852C379.899 187.276 381.832 188.076 383.846 188.076H407.148C407.928 188.104 408.706 187.976 409.434 187.697C410.163 187.419 410.828 186.997 411.39 186.456C411.952 185.915 412.399 185.266 412.704 184.548C413.009 183.831 413.166 183.059 413.166 182.279C413.166 181.5 413.009 180.728 412.704 180.01C412.399 179.293 411.952 178.644 411.39 178.103C410.828 177.562 410.163 177.14 409.434 176.861C408.706 176.583 407.928 176.454 407.148 176.483V176.467Z" fill="url(#paint1_linear_18166_2863)"/>
<path opacity="0.15" d="M304.481 28.9378C303.206 28.939 301.936 29.0953 300.698 29.4034C300.528 22.4366 297.946 15.7442 293.394 10.4655C288.841 5.18677 282.599 1.64796 275.729 0.45147C268.859 -0.745022 261.787 0.474753 255.716 3.90316C249.645 7.33157 244.95 12.7567 242.431 19.2551H241.484C236.039 19.2551 230.817 21.4167 226.966 25.2645C223.116 29.1123 220.953 34.3311 220.953 39.7727C220.953 45.2143 223.116 50.4331 226.966 54.2809C230.817 58.1287 236.039 60.2903 241.484 60.2903H304.481C308.64 60.2903 312.629 58.6391 315.57 55.7C318.511 52.7609 320.163 48.7746 320.163 44.618C320.163 40.4615 318.511 36.4751 315.57 33.536C312.629 30.5969 308.64 28.9457 304.481 28.9457V28.9378Z" fill="url(#paint2_linear_18166_2863)"/>
<path d="M76.1337 150.134C79.0251 150.134 81.369 147.791 81.369 144.902C81.369 142.012 79.0251 139.67 76.1337 139.67C73.2424 139.67 70.8984 142.012 70.8984 144.902C70.8984 147.791 73.2424 150.134 76.1337 150.134Z" fill="url(#paint3_linear_18166_2863)"/>
<path d="M404.832 255.721C406.668 255.721 408.157 254.233 408.157 252.398C408.157 250.564 406.668 249.076 404.832 249.076C402.996 249.076 401.508 250.564 401.508 252.398C401.508 254.233 402.996 255.721 404.832 255.721Z" fill="url(#paint4_linear_18166_2863)"/>
<path d="M65.0048 138.573C66.0645 138.573 66.9236 137.714 66.9236 136.655C66.9236 135.596 66.0645 134.738 65.0048 134.738C63.945 134.738 63.0859 135.596 63.0859 136.655C63.0859 137.714 63.945 138.573 65.0048 138.573Z" fill="black"/>
<path d="M123.612 193.213C125.762 193.213 127.505 191.471 127.505 189.323C127.505 187.174 125.762 185.432 123.612 185.432C121.462 185.432 119.719 187.174 119.719 189.323C119.719 191.471 121.462 193.213 123.612 193.213Z" stroke="black" stroke-miterlimit="10"/>
<path d="M142.746 316.721C144.582 316.721 146.071 315.234 146.071 313.399C146.071 311.564 144.582 310.077 142.746 310.077C140.91 310.077 139.422 311.564 139.422 313.399C139.422 315.234 140.91 316.721 142.746 316.721Z" fill="url(#paint5_linear_18166_2863)"/>
<path d="M370.343 154.332C370.343 155.268 370.065 156.184 369.544 156.963C369.024 157.741 368.284 158.348 367.418 158.706C366.552 159.065 365.6 159.159 364.681 158.976C363.762 158.793 362.917 158.342 362.255 157.68C361.592 157.018 361.141 156.174 360.958 155.256C360.775 154.337 360.869 153.385 361.228 152.52C361.586 151.655 362.194 150.915 362.973 150.395C363.752 149.875 364.668 149.597 365.605 149.597C366.862 149.597 368.067 150.096 368.955 150.984C369.844 151.872 370.343 153.076 370.343 154.332Z" fill="url(#paint6_linear_18166_2863)"/>
<path d="M381.178 140.996C381.178 141.487 381.032 141.968 380.759 142.377C380.485 142.785 380.097 143.104 379.642 143.292C379.188 143.48 378.688 143.529 378.205 143.434C377.723 143.338 377.279 143.101 376.932 142.753C376.584 142.406 376.347 141.963 376.251 141.481C376.155 140.998 376.204 140.498 376.392 140.044C376.581 139.59 376.9 139.202 377.309 138.929C377.718 138.656 378.199 138.51 378.69 138.51C379.35 138.512 379.981 138.774 380.447 139.24C380.913 139.706 381.176 140.337 381.178 140.996Z" fill="black"/>
<path d="M326.837 81.3289C326.839 82.6496 326.448 83.9412 325.715 85.0401C324.982 86.139 323.939 86.9959 322.719 87.5024C321.498 88.0089 320.155 88.1423 318.858 87.8856C317.562 87.6289 316.371 86.9937 315.436 86.0603C314.501 85.1269 313.864 83.9374 313.606 82.6421C313.347 81.3469 313.479 80.0041 313.984 78.7837C314.49 77.5634 315.346 76.5203 316.445 75.7863C317.543 75.0524 318.835 74.6606 320.157 74.6606C321.927 74.6606 323.625 75.3629 324.878 76.6132C326.13 77.8636 326.835 79.5596 326.837 81.3289Z" fill="url(#paint7_linear_18166_2863)"/>
<path opacity="0.5" d="M122.73 328.961L79.0312 311.174L103.431 251.294L136.359 264.693L142.747 279.861L122.73 328.961Z" fill="url(#paint8_linear_18166_2863)"/>
<path d="M131.969 275.473L142.747 279.861L136.359 264.693L131.969 275.473Z" fill="url(#paint9_linear_18166_2863)"/>
<path d="M120.94 302.714L116.162 291.39L127.502 286.616L125.67 282.275L114.338 287.042L109.561 275.718L105.218 277.548L109.988 288.872L98.6562 293.639L100.488 297.987L111.819 293.213L116.597 304.545L120.94 302.714Z" fill="white"/>
<path opacity="0.5" d="M211.591 166.556L178.347 200.023L132.438 154.474L157.477 129.261L173.941 129.206L211.591 166.556Z" fill="url(#paint10_linear_18166_2863)"/>
<path d="M165.744 137.46L173.94 129.206L157.477 129.261L165.744 137.46Z" fill="url(#paint11_linear_18166_2863)"/>
<path d="M186.663 158.104L174.368 158.151L174.321 145.865L169.607 145.88L169.646 158.167L157.352 158.215L157.367 162.926L169.67 162.878L169.709 175.173L174.423 175.149L174.384 162.863L186.679 162.815L186.663 158.104Z" fill="white"/>
<path opacity="0.5" d="M75.3919 319.996L42.701 328.961L30.3984 284.169L55.0272 277.422L65.3082 283.27L75.3919 319.996Z" fill="url(#paint12_linear_18166_2863)"/>
<path d="M57.2344 285.479L65.3045 283.27L55.0234 277.422L57.2344 285.479Z" fill="url(#paint13_linear_18166_2863)"/>
<path d="M55.3478 316.248C54.9801 316.35 54.6511 316.559 54.4025 316.849C54.1538 317.138 53.9968 317.495 53.9513 317.873C53.9057 318.252 53.9738 318.636 54.1467 318.976C54.3197 319.316 54.5898 319.597 54.9228 319.783C55.2558 319.969 55.6367 320.053 56.0171 320.022C56.3976 319.992 56.7605 319.85 57.0597 319.613C57.359 319.376 57.5813 319.056 57.6982 318.693C57.8152 318.33 57.8216 317.94 57.7167 317.574C57.5769 317.085 57.2494 316.671 56.8056 316.423C56.3618 316.175 55.8378 316.112 55.3478 316.248Z" fill="white"/>
<path d="M55.3554 286.324C54.3629 285.689 53.2673 285.233 52.1179 284.974C50.5319 284.628 48.8845 284.682 47.3248 285.132C45.0415 285.768 43.0734 287.224 41.7973 289.22C40.4551 291.163 39.8606 293.526 40.1233 295.872C40.36 297.82 41.2119 299.642 42.5554 301.073L42.887 301.404C42.887 301.404 44.6953 303.306 46.1166 303.385C46.3803 303.424 46.6493 303.408 46.9063 303.337C47.3953 303.198 47.8092 302.87 48.0577 302.427C48.3062 301.983 48.3692 301.46 48.2329 300.97C48.2061 300.894 48.1744 300.821 48.1381 300.749C48.115 300.692 48.0887 300.637 48.0591 300.583C47.8208 300.159 47.4749 299.806 47.0563 299.557C45.7101 298.802 44.7169 297.545 44.2926 296.062C44.0767 295.303 44.0357 294.506 44.1724 293.73C44.3092 292.954 44.6202 292.218 45.0822 291.579C45.853 290.356 47.0524 289.464 48.4461 289.078C49.227 288.846 50.0496 288.789 50.855 288.912C51.6604 289.035 52.4287 289.334 53.1049 289.788C54.3447 290.526 55.2567 291.708 55.6554 293.094C56.2398 295.136 55.8055 297.603 54.3525 300.497C54.2341 300.741 54.0998 301.01 53.9498 301.286C53.0896 302.676 52.3525 304.139 51.7467 305.658C51.265 307.341 51.2815 309.128 51.7941 310.803L52.0073 311.537C52.0156 311.572 52.0289 311.607 52.0468 311.639C52.1882 312.13 52.5188 312.545 52.966 312.792C53.4133 313.039 53.9404 313.098 54.4315 312.957C54.9226 312.816 55.3374 312.485 55.5847 312.038C55.832 311.591 55.8916 311.065 55.7502 310.574L55.3791 309.28C55.2201 308.61 55.1932 307.916 55.3001 307.236C55.3049 307.191 55.3049 307.146 55.3001 307.102C55.9212 305.541 56.6277 304.016 57.4163 302.533C57.902 301.678 58.3243 300.789 58.6797 299.873C59.8695 296.795 60.1537 294.165 59.5325 291.982C58.896 289.641 57.4059 287.622 55.3554 286.324Z" fill="white"/>
<path d="M198.211 137.91L209.408 157.512L112.464 212.863C110.746 213.843 109.488 215.466 108.967 217.373C108.445 219.281 108.704 221.317 109.684 223.035L168.346 325.717C169.329 327.435 170.954 328.692 172.864 329.213C174.774 329.734 176.813 329.476 178.533 328.495L335.962 238.636C337.681 237.655 338.938 236.033 339.46 234.125C339.981 232.217 339.723 230.181 338.742 228.464L265.14 99.6999C264.159 97.9829 262.535 96.7257 260.626 96.2048C258.718 95.6839 256.68 95.9419 254.962 96.9221L200.99 127.699C200.134 128.184 199.383 128.834 198.779 129.611C198.176 130.388 197.732 131.277 197.474 132.226C197.215 133.175 197.148 134.166 197.274 135.142C197.4 136.117 197.719 137.058 198.211 137.91Z" fill="url(#paint14_linear_18166_2863)"/>
<path d="M204.036 328.961C204.036 328.961 197.435 312.184 178.586 311.726C178.586 311.726 195.958 304.829 206.16 317.518C206.16 317.518 205.907 306.289 201.872 296.212C201.872 296.212 217.096 308.412 217.096 328.969" fill="black"/>
<path d="M209.184 328.969C209.184 328.969 200.111 300.394 171.984 287.854C171.984 287.854 201.011 290.948 213.835 320.154C213.835 320.154 215.043 302.667 208.087 291.027C208.087 291.027 220.926 298.634 222.205 314.654C222.205 314.654 228.404 298.934 241.504 296.772C241.504 296.772 226.888 305.531 225.482 328.961" fill="url(#paint15_linear_18166_2863)"/>
<path d="M314.375 328.961C314.375 328.961 319.531 306.589 336.611 302.564C336.611 302.564 326.472 308.207 322.642 321.803C322.642 321.803 329.189 312.957 339.067 311.032C339.067 311.032 332.616 315.356 329.497 320.999C329.497 320.999 336.453 316.666 346.829 318.079C346.829 318.079 334.834 318.702 331.21 328.969" fill="url(#paint16_linear_18166_2863)"/>
<path d="M83.0655 241.564C83.0655 241.564 82.418 241.264 81.3125 240.672" stroke="url(#paint17_linear_18166_2863)" stroke-linecap="round" stroke-linejoin="round"/>
<path d="M77.8432 238.675C66.8989 231.794 43.423 212.413 56.2151 178.251C70.3259 140.459 133.765 152.154 132.02 167.471C129.201 191.974 68.7387 164.646 92.9647 118.797C110.092 86.3713 154.959 96.6301 171.139 118.118" stroke="url(#paint18_linear_18166_2863)" stroke-linecap="round" stroke-linejoin="round" stroke-dasharray="5.02 5.02"/>
<path d="M172.195 119.736C172.566 120.289 172.914 120.841 173.238 121.409C173.151 120.841 173.04 120.194 172.914 119.46" stroke="url(#paint19_linear_18166_2863)" stroke-linecap="round" stroke-linejoin="round"/>
<path d="M172.29 115.601C169.352 97.6324 165.436 55.9106 217.836 47.2853C262.6 39.9147 275.558 79.356 278.551 92.0848" stroke="url(#paint20_linear_18166_2863)" stroke-linecap="round" stroke-linejoin="round" stroke-dasharray="4.97 4.97"/>
<path d="M278.945 94.0417C279.19 95.2807 279.293 95.983 279.293 95.983" stroke="url(#paint21_linear_18166_2863)" stroke-linecap="round" stroke-linejoin="round"/>
<path d="M274.253 115.664C274.253 115.664 274.538 116.382 273.961 116.58C273.511 116.738 269.223 115.001 268 114.599C266.199 113.96 265.402 115.388 265.986 116.351C266.428 117.077 271.079 120.407 271.877 121.023C272.786 121.821 273.781 122.514 274.846 123.09C276.176 123.576 277.57 123.865 278.983 123.95L292.32 147.261L304.275 138.541C304.275 138.541 286.003 119.018 284.669 117.613C283.334 116.209 277.246 110.148 274.34 107.299C272.311 105.319 270.155 103.235 269.674 102.841C267.936 101.452 267.376 103.63 267.376 103.63L274.253 115.664Z" fill="url(#paint22_linear_18166_2863)"/>
<path style="mix-blend-mode:multiply" opacity="0.6" d="M278.992 123.942L295.385 145.02L292.313 147.261L278.992 123.942Z" fill="url(#paint23_linear_18166_2863)"/>
<path d="M19.1016 328.961H423.008" stroke="black" stroke-width="1.23" stroke-miterlimit="10" stroke-linecap="round"/>
<path d="M299.195 335.519H240.414" stroke="black" stroke-width="1.23" stroke-miterlimit="10" stroke-linecap="round"/>
<path d="M186.696 335.519H30.7031" stroke="black" stroke-width="1.23" stroke-miterlimit="10" stroke-linecap="round"/>
<path d="M356.289 335.519H407.876" stroke="black" stroke-width="1.23" stroke-miterlimit="10" stroke-linecap="round"/>
<path d="M391.061 291.966L405.274 302.509C405.274 302.509 408.678 304.971 407.043 308.293C405.898 310.661 400.947 313.817 396.304 315.017L381.648 305.16L391.061 291.966Z" fill="url(#paint24_linear_18166_2863)"/>
<path d="M310.71 298.973L306.762 316.208C306.762 316.208 305.877 320.312 302.174 320.154C299.576 320.044 294.664 316.8 291.695 313.052L294.854 295.691L310.71 298.973Z" fill="url(#paint25_linear_18166_2863)"/>
<path d="M335.704 167.811C335.704 167.811 323.409 156.258 316.8 150.315C316.8 150.315 308.777 162.847 307.68 166.674C307.68 166.674 319.027 179.301 326.852 178.977C334.677 178.653 338.981 172.467 335.704 167.811Z" fill="#BC80F4"/>
<path d="M306.612 175.891C306.051 177.643 305.515 180.524 304.938 181.976C303.58 195.233 324.45 208.159 338.008 227.059L367.335 209.651C367.335 209.651 351.495 180.689 343.022 172.956C339.417 169.627 335.142 167.106 330.484 165.563C325.825 164.019 320.89 163.489 316.009 164.007" fill="#BC80F4"/>
<path d="M331.273 218.671C327.143 213.936 322.8 209.627 318.852 205.532L324.963 193.213C327.81 201.498 329.921 210.016 331.273 218.671Z" fill="black"/>
<path d="M301.657 203.598L300.306 224.416L281.513 261.15C279.516 261.522 277.552 262.05 275.638 262.728C274.059 263.47 272.914 265.561 272.172 266.745C271.429 267.929 268.729 271.441 268.105 272.435C267.481 273.429 268.184 274.873 270.15 274.518C271.943 274.195 275.788 270.407 277.573 268.947C278.299 268.355 278.773 268.347 278.26 269.168C277.636 270.186 275.559 273.114 275.559 273.114L267.047 277.99C267.142 278.45 267.405 278.858 267.784 279.135C268.164 279.412 268.633 279.539 269.1 279.49C270.916 279.403 279.831 277.051 282.824 274.905C285.959 272.477 288.843 269.741 291.431 266.737C291.431 266.737 313.32 243.465 318.823 227.77C320.079 224.187 321.8 206.621 321.8 206.621L301.657 203.598Z" fill="url(#paint26_linear_18166_2863)"/>
<path d="M307.124 179.166C304.826 181.455 302.797 185.195 301.857 191.003C300.531 199.258 299.852 214.078 299.852 214.078C308.206 217.047 317.28 217.337 325.807 214.906C325.807 214.906 325.388 195.762 324.599 188.746C323.517 179.269 312.849 173.485 307.124 179.166Z" fill="#BC80F4"/>
<path d="M345.665 241.879C345.665 241.879 335.242 267.171 336.608 275.252C337.729 281.857 378.68 315.538 378.68 315.538C382.857 314.022 394.599 302.241 394.599 294.144L364.174 269.081L380.164 239.457L356.672 235.377" fill="#121D30"/>
<path d="M365.539 251.081C360.974 255.161 344.092 263.044 337.633 265.79C338.844 260.946 340.307 256.168 342.015 251.475C352.549 249.779 369.882 247.238 365.539 251.081Z" fill="black"/>
<path d="M338.005 227.059L367.332 209.651C367.332 209.651 380.385 218.726 381.27 230.169C381.27 230.524 381.317 230.879 381.325 231.234C381.68 241.138 376.682 247.94 367.332 251.254L327.377 263.013L319.441 308.167C314.561 312.799 297.616 311.805 291.883 306.407C291.883 306.407 301.358 255.958 303.348 250.008C305.338 244.057 338.005 227.059 338.005 227.059Z" fill="#121D30"/>
<path style="mix-blend-mode:screen" opacity="0.5" d="M362.838 230.437C362.475 234.745 347.266 241.658 328.931 249.597C323.404 251.964 318.666 254.064 317.497 254.861C315.278 256.51 309.901 283.909 305.518 311.032C304.95 310.992 304.365 310.937 303.797 310.866C306.561 293.742 313.02 255.926 316.51 253.456C317.789 252.548 322.172 250.654 328.244 248.019C339.631 243.095 360.809 233.925 361.109 230.295C361.44 226.349 357.911 219.902 355.81 216.485L357.303 215.569C359.506 219.191 363.209 225.97 362.838 230.437Z" fill="white"/>
<path d="M327.37 263.028C327.37 263.028 323.699 263.904 323.375 264.109C323.051 264.315 325.349 265.814 326.194 269.689L327.37 263.028Z" fill="black"/>
<path d="M364.176 269.081C364.176 269.081 360.938 266.635 360.891 266.508C360.844 266.382 365.289 265.088 367.208 263.462L364.176 269.081Z" fill="black"/>
<path d="M405.233 302.509C405.233 302.509 405.92 301.885 408.486 302.185C411.053 302.485 415.593 306.336 418.246 308.98C420.331 311.055 421.855 312.87 421.855 312.87L409.418 328.969H381.631C381.631 328.969 380.265 324.139 382.057 320.967C385.753 314.441 394.597 316.114 394.597 316.114L392.646 314.401C392.33 314.125 392.52 313.375 393.333 312.452C394.601 311.007 396.269 309.972 398.126 309.477C399.115 309.294 400.124 309.238 401.127 309.311C401.87 309.225 402.589 308.993 403.242 308.629C403.895 308.265 404.47 307.775 404.933 307.188C406.212 305.318 406.062 303.487 405.233 302.509Z" fill="url(#paint27_linear_18166_2863)"/>
<path style="mix-blend-mode:multiply" d="M421.877 312.87L409.432 328.961H381.637C381.269 327.534 381.104 326.062 381.147 324.589C381.159 324.254 381.3 323.936 381.539 323.701C381.779 323.466 382.099 323.332 382.435 323.326C384.266 323.326 386.383 323.326 386.864 323.326C387.765 323.413 389.423 324.952 389.423 324.952H406.732L418.75 309.477C420.582 311.324 421.877 312.87 421.877 312.87Z" fill="url(#paint28_linear_18166_2863)"/>
<path d="M394.601 316.114C397.354 316.23 400.078 316.713 402.703 317.55C399.993 315.463 396.581 314.505 393.18 314.875L394.601 316.114Z" fill="black"/>
<path d="M289.163 309.887C289.222 309.773 289.309 309.676 289.415 309.603C289.521 309.53 289.643 309.484 289.771 309.469C290.84 309.389 291.914 309.526 292.929 309.872C294.509 310.495 296.175 314.007 298.275 315.396C300.376 316.784 305.856 315.317 307.23 313.991C307.23 313.991 308.58 314.685 309.18 317.029C309.78 319.373 309.622 329 309.622 329H267.053C267.053 329 264.976 320.58 272.304 316.169C276.687 313.533 287.181 313.762 287.181 313.762L289.163 309.887Z" fill="url(#paint29_linear_18166_2863)"/>
<path style="mix-blend-mode:multiply" d="M309.686 328.961H267.046C266.591 326.724 266.707 324.409 267.385 322.229H268.238L269.154 322.34C269.675 322.403 270.228 323.263 270.599 323.973C270.749 324.265 270.975 324.511 271.253 324.684C271.531 324.858 271.851 324.953 272.178 324.96H309.686C309.686 327.177 309.686 328.961 309.686 328.961Z" fill="url(#paint30_linear_18166_2863)"/>
<path d="M287.164 313.73C288.084 313.703 289 313.85 289.865 314.164C289.665 313.755 289.367 313.401 288.998 313.134C288.629 312.867 288.2 312.695 287.748 312.634L287.164 313.73Z" fill="black"/>
<path d="M310.887 161.521C315.624 156.289 317.093 148.95 313.856 144.057C310.168 138.533 300.021 136.324 295.173 141.264C295.173 141.264 288.066 147.972 289.432 161.166C289.977 166.461 294.454 168.663 299.816 167.755L306.607 175.947C306.607 175.947 315.009 172.443 316.019 164.007C314.152 163.55 312.402 162.703 310.887 161.521Z" fill="url(#paint31_linear_18166_2863)"/>
<path d="M299.82 167.755C299.82 167.755 304.266 166.903 306.69 164.204C306.295 166.303 303.99 169.436 302.292 170.73L299.82 167.755Z" fill="black"/>
<path d="M312.365 162.539C311.84 162.25 311.345 161.909 310.888 161.521L310.478 160.33C311.986 158.751 312.949 156.321 311.567 154.806C310.186 153.29 307.935 154.143 307.082 155.674C306.571 155.303 306.152 154.82 305.858 154.261C304.737 152.162 305.858 149.226 305.858 149.226C305.858 149.226 302.992 150.142 298.167 147.83C293.343 145.517 292.213 142.59 292.213 142.59C288.723 136.853 298.381 135.314 298.381 135.314C298.381 135.314 296.699 134.264 298.096 133.223C299.494 132.181 304.413 130.855 310.612 133.846C318.248 137.484 317.269 143.979 317.269 143.979C325.907 150.521 312.365 162.539 312.365 162.539Z" fill="black"/>
<path d="M325.922 134.02C325.706 133.792 325.428 133.634 325.123 133.565C324.817 133.496 324.498 133.519 324.206 133.632C323.914 133.745 323.662 133.942 323.482 134.198C323.302 134.454 323.202 134.758 323.196 135.071C323.189 135.384 323.276 135.691 323.444 135.955C323.613 136.219 323.857 136.426 324.144 136.551C324.431 136.676 324.749 136.713 325.057 136.657C325.365 136.601 325.65 136.455 325.874 136.237C326.172 135.948 326.345 135.553 326.353 135.138C326.362 134.723 326.207 134.321 325.922 134.02Z" fill="black"/>
<path d="M347.513 122.711C347.591 121.757 347.506 120.796 347.26 119.87C346.829 118.311 345.932 116.92 344.689 115.883C343.446 114.847 341.916 114.214 340.303 114.07C338.4 113.823 336.471 114.278 334.879 115.349C334.539 115.585 334.22 115.849 333.923 116.138C333.086 116.963 332.446 117.966 332.052 119.073C332.004 119.2 331.973 119.31 331.933 119.436C331.933 119.436 331.246 121.449 331.728 122.498C331.805 122.709 331.923 122.902 332.075 123.066C332.365 123.364 332.76 123.536 333.175 123.545C333.59 123.554 333.993 123.399 334.294 123.114C334.341 123.067 334.383 123.017 334.421 122.964L334.515 122.845C334.728 122.509 334.851 122.123 334.871 121.725C334.885 121.102 335.022 120.487 335.274 119.917C335.526 119.347 335.888 118.832 336.339 118.402C336.801 117.959 337.357 117.626 337.965 117.428C338.574 117.229 339.219 117.172 339.853 117.258C341.025 117.352 342.12 117.878 342.925 118.734C343.388 119.208 343.741 119.778 343.958 120.405C344.175 121.031 344.251 121.697 344.181 122.356C344.116 123.528 343.607 124.631 342.759 125.442C341.504 126.641 339.561 127.257 336.932 127.304H336.213C334.898 127.21 333.577 127.231 332.265 127.367C330.871 127.66 329.591 128.348 328.577 129.348L328.127 129.774L328.064 129.845C327.822 130.143 327.697 130.519 327.712 130.903C327.728 131.287 327.883 131.652 328.148 131.93C328.413 132.207 328.771 132.379 329.154 132.412C329.537 132.445 329.918 132.338 330.228 132.11L331.017 131.321C331.44 130.953 331.931 130.671 332.462 130.492H332.573C333.931 130.344 335.297 130.275 336.663 130.287C337.454 130.312 338.246 130.281 339.032 130.192C341.701 129.887 343.704 129.098 345.041 127.825C346.471 126.486 347.352 124.663 347.513 122.711Z" fill="black"/>
<path d="M307.056 121.67C307.198 121.171 306.907 120.651 306.408 120.51C305.909 120.369 305.389 120.659 305.248 121.158C305.107 121.657 305.397 122.176 305.896 122.317C306.396 122.459 306.915 122.169 307.056 121.67Z" fill="black"/>
<path d="M311.615 106.858C311.278 106.389 310.861 105.983 310.383 105.658C309.735 105.243 308.999 104.986 308.234 104.907C307.469 104.828 306.696 104.929 305.976 105.202C305.257 105.475 304.612 105.913 304.092 106.48C303.573 107.047 303.193 107.727 302.984 108.467C302.924 108.709 302.88 108.954 302.85 109.201C302.795 109.905 302.9 110.612 303.158 111.269C303.182 111.342 303.211 111.413 303.245 111.482C303.245 111.482 303.727 112.666 304.358 112.958C304.474 113.026 304.603 113.067 304.737 113.076C304.86 113.089 304.985 113.077 305.103 113.042C305.222 113.006 305.332 112.948 305.428 112.869C305.523 112.79 305.602 112.693 305.66 112.584C305.718 112.475 305.753 112.355 305.764 112.232C305.768 112.192 305.768 112.153 305.764 112.113C305.768 112.084 305.768 112.055 305.764 112.026C305.731 111.789 305.639 111.564 305.495 111.371C305.015 110.789 304.785 110.04 304.856 109.288C304.89 108.905 305.011 108.535 305.21 108.206C305.408 107.876 305.678 107.596 306.001 107.386C306.572 106.968 307.278 106.777 307.983 106.85C308.381 106.884 308.766 107.006 309.111 107.207C309.456 107.407 309.753 107.681 309.981 108.01C310.41 108.57 310.611 109.272 310.541 109.975C310.32 111.23 309.635 112.357 308.622 113.131L308.299 113.415C307.655 113.886 307.055 114.415 306.506 114.994C305.979 115.678 305.664 116.5 305.598 117.361V117.74V117.795C305.576 118.044 305.653 118.291 305.813 118.483C305.973 118.676 306.202 118.797 306.451 118.821C306.574 118.834 306.698 118.822 306.817 118.787C306.935 118.751 307.046 118.692 307.141 118.614C307.237 118.535 307.316 118.438 307.374 118.329C307.431 118.22 307.467 118.1 307.477 117.977L307.541 117.322C307.585 116.986 307.698 116.664 307.872 116.375L307.912 116.319C308.475 115.721 309.07 115.155 309.696 114.623C310.071 114.321 310.422 113.991 310.746 113.636C311.707 112.719 312.342 111.514 312.555 110.203C312.677 109.009 312.341 107.814 311.615 106.858Z" fill="black"/>
<path opacity="0.5" d="M360.909 34.0672C356.212 34.0578 351.618 35.4413 347.708 38.0425C343.798 40.6437 340.748 44.3457 338.945 48.6799C337.141 53.014 336.665 57.7855 337.576 62.3904C338.487 66.9952 340.745 71.2264 344.063 74.5484C347.382 77.8703 351.612 80.1337 356.218 81.0519C360.824 81.9702 365.6 81.502 369.94 79.7068C374.279 77.9116 377.989 74.8699 380.598 70.9669C383.207 67.0638 384.599 62.4749 384.598 57.7808C384.598 51.4984 382.103 45.4727 377.662 41.0267C373.22 36.5806 367.195 34.0776 360.909 34.0672ZM360.909 78.188C356.87 78.1896 352.921 76.994 349.562 74.7526C346.203 72.5112 343.584 69.3246 342.038 65.5958C340.491 61.867 340.085 57.7636 340.872 53.8044C341.659 49.8453 343.604 46.2084 346.459 43.3536C349.314 40.4988 352.953 38.5544 356.914 37.7664C360.876 36.9783 364.982 37.382 368.714 38.9263C372.445 40.4707 375.635 43.0863 377.879 46.4424C380.123 49.7985 381.321 53.7444 381.321 57.7808C381.324 60.4621 380.798 63.1176 379.774 65.5958C378.75 68.0739 377.247 70.326 375.351 72.2234C373.456 74.1208 371.204 75.6262 368.726 76.6537C366.248 77.6812 363.592 78.2106 360.909 78.2117V78.188Z" fill="url(#paint32_linear_18166_2863)"/>
<path opacity="0.5" d="M363.389 57.8045C363.39 58.2949 363.246 58.7748 362.975 59.1833C362.703 59.5918 362.316 59.9106 361.863 60.0994C361.411 60.2881 360.912 60.3383 360.43 60.2436C359.949 60.1489 359.506 59.9135 359.159 59.5673C358.811 59.2211 358.574 58.7796 358.478 58.2987C358.382 57.8178 358.43 57.3192 358.618 56.866C358.805 56.4127 359.123 56.0253 359.531 55.7526C359.939 55.48 360.418 55.3345 360.909 55.3345C361.565 55.3345 362.195 55.5945 362.66 56.0574C363.124 56.5204 363.386 57.1487 363.389 57.8045Z" fill="url(#paint33_linear_18166_2863)"/>
<path d="M360.895 58.9566C361.532 58.9566 362.048 58.4408 362.048 57.8045C362.048 57.1682 361.532 56.6523 360.895 56.6523C360.258 56.6523 359.742 57.1682 359.742 57.8045C359.742 58.4408 360.258 58.9566 360.895 58.9566Z" fill="black"/>
<path d="M360.901 42.874C360.635 42.8719 360.38 42.7646 360.192 42.5753C360.004 42.3861 359.898 42.1304 359.898 41.8639V39.3228C359.897 39.1906 359.923 39.0594 359.973 38.9369C360.022 38.8144 360.096 38.703 360.189 38.6091C360.283 38.5152 360.394 38.4406 360.516 38.3898C360.638 38.3389 360.769 38.3127 360.901 38.3127C361.169 38.3127 361.426 38.4192 361.616 38.6086C361.806 38.798 361.912 39.055 361.912 39.3228V41.8639C361.912 42.1318 361.806 42.3887 361.616 42.5781C361.426 42.7676 361.169 42.874 360.901 42.874Z" fill="black"/>
<path d="M375.844 57.8045C375.844 57.6722 375.87 57.5412 375.921 57.4191C375.972 57.297 376.046 57.1862 376.14 57.093C376.234 56.9998 376.346 56.9262 376.468 56.8763C376.591 56.8264 376.722 56.8012 376.854 56.8023H379.397C379.529 56.8012 379.661 56.8264 379.783 56.8763C379.906 56.9262 380.017 56.9998 380.111 57.093C380.205 57.1862 380.28 57.297 380.331 57.4191C380.382 57.5412 380.408 57.6722 380.408 57.8045C380.408 58.0724 380.301 58.3293 380.112 58.5187C379.922 58.7082 379.665 58.8146 379.397 58.8146H376.854C376.586 58.8146 376.329 58.7082 376.14 58.5187C375.95 58.3293 375.844 58.0724 375.844 57.8045Z" fill="black"/>
<path d="M360.901 72.7351C361.169 72.7351 361.426 72.8415 361.616 73.031C361.806 73.2204 361.912 73.4773 361.912 73.7452V76.2862C361.912 76.5541 361.806 76.811 361.616 77.0005C361.426 77.1899 361.169 77.2963 360.901 77.2963C360.769 77.2963 360.638 77.2702 360.516 77.2193C360.394 77.1684 360.283 77.0939 360.189 77C360.096 76.9061 360.022 76.7947 359.973 76.6722C359.923 76.5497 359.897 76.4185 359.898 76.2862V73.7452C359.897 73.6129 359.923 73.4818 359.973 73.3593C360.022 73.2368 360.096 73.1253 360.189 73.0314C360.283 72.9375 360.394 72.863 360.516 72.8121C360.638 72.7613 360.769 72.7351 360.901 72.7351Z" fill="black"/>
<path d="M345.955 57.8045C345.955 58.0724 345.848 58.3293 345.659 58.5187C345.469 58.7082 345.212 58.8146 344.944 58.8146H342.401C342.133 58.8146 341.876 58.7082 341.687 58.5187C341.497 58.3293 341.391 58.0724 341.391 57.8045C341.391 57.6722 341.417 57.5412 341.468 57.4191C341.519 57.297 341.593 57.1862 341.687 57.093C341.781 56.9998 341.893 56.9262 342.015 56.8763C342.138 56.8264 342.269 56.8012 342.401 56.8023H344.944C345.076 56.8012 345.208 56.8264 345.33 56.8763C345.453 56.9262 345.564 56.9998 345.658 57.093C345.752 57.1862 345.827 57.297 345.878 57.4191C345.929 57.5412 345.955 57.6722 345.955 57.8045Z" fill="black"/>
<path d="M349.148 44.0576L360.898 57.8044L353.081 65.2618" stroke="black" stroke-linecap="round" stroke-linejoin="round"/>
<path d="M87.3517 257.512L90.8261 243.821L77.1259 247.293L82.219 249.637L71.1562 255.484L79.1553 263.478L85.0065 252.422L87.3517 257.512Z" fill="black"/>
</g>
<defs>
<linearGradient id="paint0_linear_18166_2863" x1="1.19496" y1="79.8688" x2="47.1342" y2="120.696" gradientUnits="userSpaceOnUse">
<stop stop-color="#8AB9FD"/>
<stop offset="1" stop-color="#0056E9"/>
</linearGradient>
<linearGradient id="paint1_linear_18166_2863" x1="376.676" y1="165.175" x2="404.582" y2="189.979" gradientUnits="userSpaceOnUse">
<stop stop-color="#8AB9FD"/>
<stop offset="1" stop-color="#0056E9"/>
</linearGradient>
<linearGradient id="paint2_linear_18166_2863" x1="222.082" y1="-1.60191" x2="297.545" y2="65.4589" gradientUnits="userSpaceOnUse">
<stop stop-color="#8AB9FD"/>
<stop offset="1" stop-color="#0056E9"/>
</linearGradient>
<linearGradient id="paint3_linear_18166_2863" x1="70.8353" y1="139.607" x2="81.1651" y2="149.935" gradientUnits="userSpaceOnUse">
<stop stop-color="#E4816F"/>
<stop offset="1" stop-color="#E25E52"/>
</linearGradient>
<linearGradient id="paint4_linear_18166_2863" x1="401.46" y1="249.029" x2="408.026" y2="255.599" gradientUnits="userSpaceOnUse">
<stop stop-color="#E4816F"/>
<stop offset="1" stop-color="#E25E52"/>
</linearGradient>
<linearGradient id="paint5_linear_18166_2863" x1="139.374" y1="310.029" x2="145.94" y2="316.599" gradientUnits="userSpaceOnUse">
<stop stop-color="#E4816F"/>
<stop offset="1" stop-color="#E25E52"/>
</linearGradient>
<linearGradient id="paint6_linear_18166_2863" x1="362.731" y1="151.444" x2="371.309" y2="160.027" gradientUnits="userSpaceOnUse">
<stop stop-color="#8AB9FD"/>
<stop offset="1" stop-color="#0056E9"/>
</linearGradient>
<linearGradient id="paint7_linear_18166_2863" x1="316.067" y1="77.2411" x2="328.204" y2="89.3857" gradientUnits="userSpaceOnUse">
<stop stop-color="#8AB9FD"/>
<stop offset="1" stop-color="#0056E9"/>
</linearGradient>
<linearGradient id="paint8_linear_18166_2863" x1="81.2643" y1="254.992" x2="138.916" y2="264.81" gradientUnits="userSpaceOnUse">
<stop stop-color="#05E389"/>
<stop offset="1" stop-color="#009A62"/>
</linearGradient>
<linearGradient id="paint9_linear_18166_2863" x1="132.347" y1="265.416" x2="142.168" y2="266.865" gradientUnits="userSpaceOnUse">
<stop stop-color="#05E389"/>
<stop offset="1" stop-color="#009A62"/>
</linearGradient>
<linearGradient id="paint10_linear_18166_2863" x1="143.355" y1="132.078" x2="204.462" y2="192.777" gradientUnits="userSpaceOnUse">
<stop stop-color="#8AB9FD"/>
<stop offset="1" stop-color="#0056E9"/>
</linearGradient>
<linearGradient id="paint11_linear_18166_2863" x1="160.556" y1="124.114" x2="171.556" y2="135.04" gradientUnits="userSpaceOnUse">
<stop stop-color="#8AB9FD"/>
<stop offset="1" stop-color="#0056E9"/>
</linearGradient>
<linearGradient id="paint12_linear_18166_2863" x1="45.1948" y1="274.12" x2="61.5468" y2="333.766" gradientUnits="userSpaceOnUse">
<stop stop-color="#8AB9FD"/>
<stop offset="1" stop-color="#0056E9"/>
</linearGradient>
<linearGradient id="paint13_linear_18166_2863" x1="58.7579" y1="275.31" x2="61.6999" y2="286.042" gradientUnits="userSpaceOnUse">
<stop stop-color="#8AB9FD"/>
<stop offset="1" stop-color="#0056E9"/>
</linearGradient>
<linearGradient id="paint14_linear_18166_2863" x1="254.543" y1="278.759" x2="182.11" y2="151.897" gradientUnits="userSpaceOnUse">
<stop stop-color="#E6832C"/>
<stop offset="1" stop-color="#E9A347"/>
</linearGradient>
<linearGradient id="paint15_linear_18166_2863" x1="206.76" y1="325.031" x2="206.76" y2="284.003" gradientUnits="userSpaceOnUse">
<stop stop-color="#53B0B1"/>
<stop offset="1" stop-color="#6ACAD8"/>
</linearGradient>
<linearGradient id="paint16_linear_18166_2863" x1="330.602" y1="326.538" x2="330.602" y2="303.535" gradientUnits="userSpaceOnUse">
<stop stop-color="#53B0B1"/>
<stop offset="1" stop-color="#6ACAD8"/>
</linearGradient>
<linearGradient id="paint17_linear_18166_2863" x1="52.0881" y1="241.114" x2="279.693" y2="241.114" gradientUnits="userSpaceOnUse">
<stop stop-color="#8AB9FD"/>
<stop offset="1" stop-color="#0056E9"/>
</linearGradient>
<linearGradient id="paint18_linear_18166_2863" x1="52.0853" y1="168.379" x2="279.682" y2="168.379" gradientUnits="userSpaceOnUse">
<stop stop-color="#8AB9FD"/>
<stop offset="1" stop-color="#0056E9"/>
</linearGradient>
<linearGradient id="paint19_linear_18166_2863" x1="52.0831" y1="120.438" x2="279.681" y2="120.438" gradientUnits="userSpaceOnUse">
<stop stop-color="#8AB9FD"/>
<stop offset="1" stop-color="#0056E9"/>
</linearGradient>
<linearGradient id="paint20_linear_18166_2863" x1="52.0834" y1="80.9895" x2="279.68" y2="80.9895" gradientUnits="userSpaceOnUse">
<stop stop-color="#8AB9FD"/>
<stop offset="1" stop-color="#0056E9"/>
</linearGradient>
<linearGradient id="paint21_linear_18166_2863" x1="52.0817" y1="94.9729" x2="279.688" y2="94.9729" gradientUnits="userSpaceOnUse">
<stop stop-color="#8AB9FD"/>
<stop offset="1" stop-color="#0056E9"/>
</linearGradient>
<linearGradient id="paint22_linear_18166_2863" x1="277.799" y1="116.595" x2="312.324" y2="167.831" gradientUnits="userSpaceOnUse">
<stop stop-color="#FFCBCA"/>
<stop offset="1" stop-color="#E994A8"/>
</linearGradient>
<linearGradient id="paint23_linear_18166_2863" x1="277.342" y1="115.325" x2="288.725" y2="137.498" gradientUnits="userSpaceOnUse">
<stop stop-color="#FFCBCA" stop-opacity="0.6"/>
<stop offset="1" stop-color="#E994A8"/>
</linearGradient>
<linearGradient id="paint24_linear_18166_2863" x1="406.869" y1="316.035" x2="387.613" y2="298.48" gradientUnits="userSpaceOnUse">
<stop stop-color="#FFCBCA"/>
<stop offset="1" stop-color="#E994A8"/>
</linearGradient>
<linearGradient id="paint25_linear_18166_2863" x1="292.805" y1="323.901" x2="301.227" y2="299.162" gradientUnits="userSpaceOnUse">
<stop stop-color="#FFCBCA"/>
<stop offset="1" stop-color="#E994A8"/>
</linearGradient>
<linearGradient id="paint26_linear_18166_2863" x1="260.904" y1="293.095" x2="315.963" y2="208.033" gradientUnits="userSpaceOnUse">
<stop stop-color="#FFCBCA"/>
<stop offset="1" stop-color="#E994A8"/>
</linearGradient>
<linearGradient id="paint27_linear_18166_2863" x1="401.853" y1="297.143" x2="401.412" y2="324.905" gradientUnits="userSpaceOnUse">
<stop stop-color="#E4816F"/>
<stop offset="1" stop-color="#E25E52"/>
</linearGradient>
<linearGradient id="paint28_linear_18166_2863" x1="381.14" y1="319.207" x2="421.877" y2="319.207" gradientUnits="userSpaceOnUse">
<stop stop-color="#E4816F"/>
<stop offset="1" stop-color="#E25E52"/>
</linearGradient>
<linearGradient id="paint29_linear_18166_2863" x1="288.231" y1="302.896" x2="288.231" y2="326.444" gradientUnits="userSpaceOnUse">
<stop stop-color="#E4816F"/>
<stop offset="1" stop-color="#E25E52"/>
</linearGradient>
<linearGradient id="paint30_linear_18166_2863" x1="288.224" y1="319.973" x2="288.224" y2="328.093" gradientUnits="userSpaceOnUse">
<stop stop-color="#E4816F"/>
<stop offset="1" stop-color="#E25E52"/>
</linearGradient>
<linearGradient id="paint31_linear_18166_2863" x1="294.731" y1="142.416" x2="320.458" y2="183.482" gradientUnits="userSpaceOnUse">
<stop stop-color="#FFCBCA"/>
<stop offset="1" stop-color="#E994A8"/>
</linearGradient>
<linearGradient id="paint32_linear_18166_2863" x1="344.808" y1="41.7218" x2="377.952" y2="74.8865" gradientUnits="userSpaceOnUse">
<stop stop-color="#8AB9FD"/>
<stop offset="1" stop-color="#0056E9"/>
</linearGradient>
<linearGradient id="paint33_linear_18166_2863" x1="344.808" y1="41.7218" x2="377.952" y2="74.8865" gradientUnits="userSpaceOnUse">
<stop stop-color="#8AB9FD"/>
<stop offset="1" stop-color="#0056E9"/>
</linearGradient>
<clipPath id="clip0_18166_2863">
<rect width="423" height="336" fill="white" transform="translate(0.5)"/>
</clipPath>
</defs>
</svg>
